<mxfile host="app.diagrams.net" modified="2020-10-13T04:06:02.471Z" agent="5.0 (Windows NT 10.0; Win64; x64) AppleWebKit/537.36 (KHTML, like Gecko) Chrome/86.0.4240.75 Safari/537.36 Edg/86.0.622.38" etag="CWL2bEC9maPB4YaV_asn" version="13.7.9" type="github">
  <diagram id="C5RBs43oDa-KdzZeNtuy" name="Page-1">
    <mxGraphModel dx="1422" dy="746" grid="1" gridSize="10" guides="1" tooltips="1" connect="1" arrows="1" fold="1" page="1" pageScale="1" pageWidth="827" pageHeight="1169" math="0" shadow="0">
      <root>
        <mxCell id="WIyWlLk6GJQsqaUBKTNV-0" />
        <mxCell id="WIyWlLk6GJQsqaUBKTNV-1" parent="WIyWlLk6GJQsqaUBKTNV-0" />
        <mxCell id="4oJUxCtLDNiQwjgYBg_o-6" style="edgeStyle=orthogonalEdgeStyle;rounded=0;orthogonalLoop=1;jettySize=auto;html=1;exitX=1;exitY=0.5;exitDx=0;exitDy=0;" parent="WIyWlLk6GJQsqaUBKTNV-1" source="4oJUxCtLDNiQwjgYBg_o-3" target="4oJUxCtLDNiQwjgYBg_o-5" edge="1">
          <mxGeometry relative="1" as="geometry" />
        </mxCell>
        <mxCell id="4oJUxCtLDNiQwjgYBg_o-3" value="遥感影像&lt;br&gt;（Landsat）" style="shape=parallelogram;html=1;strokeWidth=2;perimeter=parallelogramPerimeter;whiteSpace=wrap;rounded=1;arcSize=12;size=0.23;" parent="WIyWlLk6GJQsqaUBKTNV-1" vertex="1">
          <mxGeometry x="37" y="117" width="100" height="60" as="geometry" />
        </mxCell>
        <mxCell id="4oJUxCtLDNiQwjgYBg_o-12" value="" style="edgeStyle=orthogonalEdgeStyle;rounded=0;orthogonalLoop=1;jettySize=auto;html=1;" parent="WIyWlLk6GJQsqaUBKTNV-1" source="4oJUxCtLDNiQwjgYBg_o-5" target="4oJUxCtLDNiQwjgYBg_o-11" edge="1">
          <mxGeometry relative="1" as="geometry" />
        </mxCell>
        <mxCell id="4oJUxCtLDNiQwjgYBg_o-5" value="监督分类&lt;br&gt;（GEE）" style="rounded=1;whiteSpace=wrap;html=1;absoluteArcSize=1;arcSize=14;strokeWidth=2;" parent="WIyWlLk6GJQsqaUBKTNV-1" vertex="1">
          <mxGeometry x="187" y="117" width="100" height="60" as="geometry" />
        </mxCell>
        <mxCell id="4oJUxCtLDNiQwjgYBg_o-19" value="" style="edgeStyle=orthogonalEdgeStyle;rounded=0;orthogonalLoop=1;jettySize=auto;html=1;" parent="WIyWlLk6GJQsqaUBKTNV-1" source="4oJUxCtLDNiQwjgYBg_o-11" target="4oJUxCtLDNiQwjgYBg_o-18" edge="1">
          <mxGeometry relative="1" as="geometry" />
        </mxCell>
        <mxCell id="4oJUxCtLDNiQwjgYBg_o-11" value="LUC数据&lt;br&gt;（1986-2018）" style="shape=parallelogram;perimeter=parallelogramPerimeter;whiteSpace=wrap;html=1;fixedSize=1;rounded=1;strokeWidth=2;arcSize=14;" parent="WIyWlLk6GJQsqaUBKTNV-1" vertex="1">
          <mxGeometry x="338" y="117" width="100" height="60" as="geometry" />
        </mxCell>
        <mxCell id="4oJUxCtLDNiQwjgYBg_o-15" style="edgeStyle=orthogonalEdgeStyle;rounded=0;orthogonalLoop=1;jettySize=auto;html=1;entryX=0.5;entryY=0;entryDx=0;entryDy=0;exitX=0.5;exitY=1;exitDx=0;exitDy=0;exitPerimeter=0;" parent="WIyWlLk6GJQsqaUBKTNV-1" source="4oJUxCtLDNiQwjgYBg_o-13" target="4oJUxCtLDNiQwjgYBg_o-5" edge="1">
          <mxGeometry relative="1" as="geometry" />
        </mxCell>
        <mxCell id="4oJUxCtLDNiQwjgYBg_o-13" value="训练样本&lt;br&gt;（目视）" style="strokeWidth=2;html=1;shape=mxgraph.flowchart.direct_data;whiteSpace=wrap;" parent="WIyWlLk6GJQsqaUBKTNV-1" vertex="1">
          <mxGeometry x="187" y="27" width="100" height="60" as="geometry" />
        </mxCell>
        <mxCell id="4oJUxCtLDNiQwjgYBg_o-16" style="edgeStyle=orthogonalEdgeStyle;rounded=0;orthogonalLoop=1;jettySize=auto;html=1;entryX=0.5;entryY=0;entryDx=0;entryDy=0;" parent="WIyWlLk6GJQsqaUBKTNV-1" source="4oJUxCtLDNiQwjgYBg_o-14" target="4oJUxCtLDNiQwjgYBg_o-11" edge="1">
          <mxGeometry relative="1" as="geometry" />
        </mxCell>
        <mxCell id="4oJUxCtLDNiQwjgYBg_o-14" value="验证样本&lt;br&gt;(GE/野外)" style="strokeWidth=2;html=1;shape=mxgraph.flowchart.direct_data;whiteSpace=wrap;" parent="WIyWlLk6GJQsqaUBKTNV-1" vertex="1">
          <mxGeometry x="338" y="27" width="100" height="60" as="geometry" />
        </mxCell>
        <mxCell id="4oJUxCtLDNiQwjgYBg_o-24" style="edgeStyle=orthogonalEdgeStyle;rounded=0;orthogonalLoop=1;jettySize=auto;html=1;entryX=0.5;entryY=1;entryDx=0;entryDy=0;" parent="WIyWlLk6GJQsqaUBKTNV-1" source="4oJUxCtLDNiQwjgYBg_o-17" target="4oJUxCtLDNiQwjgYBg_o-22" edge="1">
          <mxGeometry relative="1" as="geometry" />
        </mxCell>
        <mxCell id="4oJUxCtLDNiQwjgYBg_o-36" style="edgeStyle=orthogonalEdgeStyle;rounded=0;orthogonalLoop=1;jettySize=auto;html=1;entryX=0.5;entryY=0;entryDx=0;entryDy=0;entryPerimeter=0;" parent="WIyWlLk6GJQsqaUBKTNV-1" source="4oJUxCtLDNiQwjgYBg_o-17" target="4oJUxCtLDNiQwjgYBg_o-25" edge="1">
          <mxGeometry relative="1" as="geometry">
            <mxPoint x="500" y="200" as="targetPoint" />
            <Array as="points">
              <mxPoint x="680" y="200" />
              <mxPoint x="550" y="200" />
            </Array>
          </mxGeometry>
        </mxCell>
        <mxCell id="4oJUxCtLDNiQwjgYBg_o-17" value="LAI数据&lt;br&gt;（AVHRR）" style="shape=parallelogram;html=1;strokeWidth=2;perimeter=parallelogramPerimeter;whiteSpace=wrap;rounded=1;arcSize=12;size=0.23;" parent="WIyWlLk6GJQsqaUBKTNV-1" vertex="1">
          <mxGeometry x="630" y="117" width="100" height="60" as="geometry" />
        </mxCell>
        <mxCell id="4oJUxCtLDNiQwjgYBg_o-21" value="" style="edgeStyle=orthogonalEdgeStyle;rounded=0;orthogonalLoop=1;jettySize=auto;html=1;" parent="WIyWlLk6GJQsqaUBKTNV-1" source="4oJUxCtLDNiQwjgYBg_o-18" target="4oJUxCtLDNiQwjgYBg_o-20" edge="1">
          <mxGeometry relative="1" as="geometry" />
        </mxCell>
        <mxCell id="4oJUxCtLDNiQwjgYBg_o-35" style="edgeStyle=orthogonalEdgeStyle;rounded=0;orthogonalLoop=1;jettySize=auto;html=1;exitX=0.5;exitY=1;exitDx=0;exitDy=0;entryX=0.5;entryY=0;entryDx=0;entryDy=0;entryPerimeter=0;" parent="WIyWlLk6GJQsqaUBKTNV-1" source="4oJUxCtLDNiQwjgYBg_o-18" target="4oJUxCtLDNiQwjgYBg_o-25" edge="1">
          <mxGeometry relative="1" as="geometry" />
        </mxCell>
        <mxCell id="4oJUxCtLDNiQwjgYBg_o-18" value="LUCC分析" style="whiteSpace=wrap;html=1;rounded=1;strokeWidth=2;arcSize=14;" parent="WIyWlLk6GJQsqaUBKTNV-1" vertex="1">
          <mxGeometry x="500" y="117" width="100" height="60" as="geometry" />
        </mxCell>
        <mxCell id="4oJUxCtLDNiQwjgYBg_o-23" value="" style="edgeStyle=orthogonalEdgeStyle;rounded=0;orthogonalLoop=1;jettySize=auto;html=1;" parent="WIyWlLk6GJQsqaUBKTNV-1" source="4oJUxCtLDNiQwjgYBg_o-20" target="4oJUxCtLDNiQwjgYBg_o-22" edge="1">
          <mxGeometry relative="1" as="geometry" />
        </mxCell>
        <mxCell id="4oJUxCtLDNiQwjgYBg_o-20" value="LUC&lt;br&gt;转移网络" style="shape=parallelogram;perimeter=parallelogramPerimeter;whiteSpace=wrap;html=1;fixedSize=1;rounded=1;strokeWidth=2;arcSize=14;fillColor=#dae8fc;strokeColor=#6c8ebf;" parent="WIyWlLk6GJQsqaUBKTNV-1" vertex="1">
          <mxGeometry x="500" y="27" width="100" height="60" as="geometry" />
        </mxCell>
        <mxCell id="4oJUxCtLDNiQwjgYBg_o-22" value="叶面积&lt;br&gt;转移网络" style="shape=parallelogram;perimeter=parallelogramPerimeter;whiteSpace=wrap;html=1;fixedSize=1;rounded=1;strokeWidth=2;arcSize=14;fillColor=#dae8fc;strokeColor=#6c8ebf;" parent="WIyWlLk6GJQsqaUBKTNV-1" vertex="1">
          <mxGeometry x="630" y="27" width="100" height="60" as="geometry" />
        </mxCell>
        <mxCell id="4oJUxCtLDNiQwjgYBg_o-25" value="格式化数据&lt;br&gt;（时间序列）" style="strokeWidth=2;html=1;shape=mxgraph.flowchart.stored_data;whiteSpace=wrap;fillColor=#fff2cc;strokeColor=#d6b656;" parent="WIyWlLk6GJQsqaUBKTNV-1" vertex="1">
          <mxGeometry x="500" y="220" width="100" height="60" as="geometry" />
        </mxCell>
        <mxCell id="4oJUxCtLDNiQwjgYBg_o-27" style="edgeStyle=orthogonalEdgeStyle;rounded=0;orthogonalLoop=1;jettySize=auto;html=1;entryX=0.93;entryY=0.5;entryDx=0;entryDy=0;entryPerimeter=0;" parent="WIyWlLk6GJQsqaUBKTNV-1" source="4oJUxCtLDNiQwjgYBg_o-26" target="4oJUxCtLDNiQwjgYBg_o-25" edge="1">
          <mxGeometry relative="1" as="geometry">
            <mxPoint x="653" y="270" as="targetPoint" />
          </mxGeometry>
        </mxCell>
        <mxCell id="4oJUxCtLDNiQwjgYBg_o-26" value="多源数据" style="shape=parallelogram;html=1;strokeWidth=2;perimeter=parallelogramPerimeter;whiteSpace=wrap;rounded=1;arcSize=12;size=0.23;" parent="WIyWlLk6GJQsqaUBKTNV-1" vertex="1">
          <mxGeometry x="630" y="220" width="100" height="60" as="geometry" />
        </mxCell>
        <mxCell id="4oJUxCtLDNiQwjgYBg_o-31" value="" style="edgeStyle=orthogonalEdgeStyle;rounded=0;orthogonalLoop=1;jettySize=auto;html=1;" parent="WIyWlLk6GJQsqaUBKTNV-1" source="4oJUxCtLDNiQwjgYBg_o-28" target="4oJUxCtLDNiQwjgYBg_o-30" edge="1">
          <mxGeometry relative="1" as="geometry" />
        </mxCell>
        <mxCell id="4oJUxCtLDNiQwjgYBg_o-28" value="本底数据" style="shape=parallelogram;html=1;strokeWidth=2;perimeter=parallelogramPerimeter;whiteSpace=wrap;rounded=1;arcSize=12;size=0.23;" parent="WIyWlLk6GJQsqaUBKTNV-1" vertex="1">
          <mxGeometry x="37" y="220" width="100" height="60" as="geometry" />
        </mxCell>
        <mxCell id="4oJUxCtLDNiQwjgYBg_o-33" style="edgeStyle=orthogonalEdgeStyle;rounded=0;orthogonalLoop=1;jettySize=auto;html=1;entryX=0;entryY=0.5;entryDx=0;entryDy=0;entryPerimeter=0;" parent="WIyWlLk6GJQsqaUBKTNV-1" source="4oJUxCtLDNiQwjgYBg_o-30" target="4oJUxCtLDNiQwjgYBg_o-32" edge="1">
          <mxGeometry relative="1" as="geometry" />
        </mxCell>
        <mxCell id="4oJUxCtLDNiQwjgYBg_o-30" value="多尺度单元&lt;br&gt;划分" style="whiteSpace=wrap;html=1;rounded=1;strokeWidth=2;arcSize=12;" parent="WIyWlLk6GJQsqaUBKTNV-1" vertex="1">
          <mxGeometry x="170" y="220" width="100" height="60" as="geometry" />
        </mxCell>
        <mxCell id="4oJUxCtLDNiQwjgYBg_o-37" style="edgeStyle=orthogonalEdgeStyle;rounded=0;orthogonalLoop=1;jettySize=auto;html=1;entryX=0;entryY=0.5;entryDx=0;entryDy=0;entryPerimeter=0;" parent="WIyWlLk6GJQsqaUBKTNV-1" source="4oJUxCtLDNiQwjgYBg_o-32" target="4oJUxCtLDNiQwjgYBg_o-25" edge="1">
          <mxGeometry relative="1" as="geometry" />
        </mxCell>
        <mxCell id="4oJUxCtLDNiQwjgYBg_o-32" value="空间多尺度&lt;br&gt;节点单元" style="strokeWidth=2;html=1;shape=mxgraph.flowchart.multi-document;whiteSpace=wrap;" parent="WIyWlLk6GJQsqaUBKTNV-1" vertex="1">
          <mxGeometry x="350" y="220" width="88" height="60" as="geometry" />
        </mxCell>
        <mxCell id="7WMX1Rni2dbUCdkuUEu--0" value="叶面积响应单元" style="aspect=fixed;html=1;points=[];align=center;image;fontSize=12;image=data:image/svg+xml,PHN2ZyB4bWxucz0iaHR0cDovL3d3dy53My5vcmcvMjAwMC9zdmciIHhtbG5zOnhsaW5rPSJodHRwOi8vd3d3LnczLm9yZy8xOTk5L3hsaW5rIiB3aWR0aD0iNjUiIGhlaWdodD0iNjUiIG92ZXJmbG93PSJoaWRkZW4iIHZpZXdCb3g9IjAgMCA2NSA2NSI+PGRlZnM+PGNsaXBQYXRoIGlkPSJjbGlwMCI+PHJlY3QgeD0iOTg4IiB5PSIyMTMiIHdpZHRoPSI2NSIgaGVpZ2h0PSI2NSIvPjwvY2xpcFBhdGg+PC9kZWZzPjxnIGNsaXAtcGF0aD0idXJsKCNjbGlwMCkiIHRyYW5zZm9ybT0idHJhbnNsYXRlKC05ODggLTIxMykiPjxwYXRoIGQ9Ik0xMDIwIDI2Ny42ODNDMTAxNy43MiAyNjcuNjgzIDEwMTUuODcgMjY5LjUzMiAxMDE1Ljg3IDI3MS44MDYgMTAxNS44NyAyNzQuMDkgMTAxNy43MiAyNzUuOTM5IDEwMjAgMjc1LjkzOSAxMDIyLjI4IDI3NS45MzkgMTAyNC4xMyAyNzQuMDkgMTAyNC4xMyAyNzEuODA2IDEwMjQuMTMgMjY5LjUzMiAxMDIyLjI4IDI2Ny42ODMgMTAyMCAyNjcuNjgzWk0xMDM4LjI1IDI2MC4xMjVDMTAzNy4xNCAyNjAuMTI1IDEwMzYuMTEgMjYwLjU1MSAxMDM1LjMzIDI2MS4zMzUgMTAzNC41NSAyNjIuMTA5IDEwMzQuMTIgMjYzLjE0NCAxMDM0LjEyIDI2NC4yNDggMTAzNC4xMiAyNjUuMzUxIDEwMzQuNTUgMjY2LjM4NyAxMDM1LjMzIDI2Ny4xNyAxMDM2Ljg5IDI2OC43MjkgMTAzOS42MSAyNjguNzI5IDEwNDEuMTcgMjY3LjE3IDEwNDEuOTUgMjY2LjM4NyAxMDQyLjM4IDI2NS4zNTEgMTA0Mi4zOCAyNjQuMjQ4IDEwNDIuMzggMjYzLjE0NCAxMDQxLjk1IDI2Mi4xMDkgMTA0MS4xNyAyNjEuMzM1IDEwNDAuMzkgMjYwLjU1MSAxMDM5LjM1IDI2MC4xMjUgMTAzOC4yNSAyNjAuMTI1Wk0xMDAxLjc1IDI2MC4xMjVDMTAwMC42NSAyNjAuMTI1IDk5OS42MTMgMjYwLjU1MSA5OTguODMgMjYxLjMzNSA5OTguMDU1IDI2Mi4xMDkgOTk3LjYyIDI2My4xNDQgOTk3LjYyIDI2NC4yNDggOTk3LjYyIDI2NS4zNTEgOTk4LjA1NSAyNjYuMzg3IDk5OC44MyAyNjcuMTcgMTAwMC40IDI2OC43MjkgMTAwMy4xMSAyNjguNzI5IDEwMDQuNjcgMjY3LjE3IDEwMDUuNDUgMjY2LjM4NyAxMDA1Ljg4IDI2NS4zNTEgMTAwNS44OCAyNjQuMjQ4IDEwMDUuODggMjYzLjE0NCAxMDA1LjQ1IDI2Mi4xMDkgMTAwNC42NyAyNjEuMzM1IDEwMDMuODkgMjYwLjU1MSAxMDAyLjg2IDI2MC4xMjUgMTAwMS43NSAyNjAuMTI1Wk0xMDQ1LjgxIDI0MS44NzJDMTA0My41MyAyNDEuODcyIDEwNDEuNjggMjQzLjcyMSAxMDQxLjY4IDI0Ni4wMDUgMTA0MS42OCAyNDguMjc5IDEwNDMuNTMgMjUwLjEyOCAxMDQ1LjgxIDI1MC4xMjggMTA0OC4wOSAyNTAuMTI4IDEwNDkuOTQgMjQ4LjI3OSAxMDQ5Ljk0IDI0Ni4wMDUgMTA0OS45NCAyNDMuNzIxIDEwNDguMDkgMjQxLjg3MiAxMDQ1LjgxIDI0MS44NzJaTTk5NC4xOTQgMjQxLjg3MkM5OTEuOTIgMjQxLjg3MiA5OTAuMDYxIDI0My43MjEgOTkwLjA2MSAyNDYuMDA1IDk5MC4wNjEgMjQ4LjI3OSA5OTEuOTIgMjUwLjEyOCA5OTQuMTk0IDI1MC4xMjggOTk2LjQ2OCAyNTAuMTI4IDk5OC4zMjYgMjQ4LjI3OSA5OTguMzI2IDI0Ni4wMDUgOTk4LjMyNiAyNDMuNzIxIDk5Ni40NjggMjQxLjg3MiA5OTQuMTk0IDI0MS44NzJaTTEwMzAuMzIgMjM3Ljc0MUMxMDI1LjU1IDIzNy43NDEgMTAyMS42MSAyNDEuMzYxIDEwMjEuMDkgMjQ2LjAwNkwxMDI2LjE5IDI0Ni4wMDZDMTAzMC45NyAyNDYuMDA2IDEwMzQuOSAyNDIuMzg3IDEwMzUuNDMgMjM3Ljc0MVpNMTAwNC41OCAyMzcuNzQxQzEwMDUuMDkgMjQyLjM4NyAxMDA5LjAzIDI0Ni4wMDYgMTAxMy44MSAyNDYuMDA2TDEwMTguOTEgMjQ2LjAwNkMxMDE4LjM5IDI0MS4zNjEgMTAxNC40NSAyMzcuNzQxIDEwMDkuNjggMjM3Ljc0MVpNMTAwMi40NSAyMzUuNjggMTAwOS42OCAyMzUuNjhDMTAxNC4yNSAyMzUuNjggMTAxOC4yIDIzOC40MTkgMTAyMCAyNDIuMzI5IDEwMjEuNzkgMjM4LjQxOSAxMDI1Ljc0IDIzNS42OCAxMDMwLjMyIDIzNS42OEwxMDM3LjU1IDIzNS42OCAxMDM3LjU1IDIzNi43MTVDMTAzNy41NSAyNDIuOTc3IDEwMzIuNDYgMjQ4LjA2OCAxMDI2LjE5IDI0OC4wNjhMMTAyMS4wMyAyNDguMDY4IDEwMjEuMDMgMjU5LjQyMSAxMDI3LjIyIDI1OS40MjEgMTAyNy4yMiAyNjEuNDkyIDEwMTIuNzcgMjYxLjQ5MiAxMDEyLjc3IDI1OS40MjEgMTAxOC45NyAyNTkuNDIxIDEwMTguOTcgMjQ4LjA2OCAxMDEzLjgxIDI0OC4wNjhDMTAwNy41NSAyNDguMDY4IDEwMDIuNDUgMjQyLjk3NyAxMDAyLjQ1IDIzNi43MTVaTTEwMzguMjUgMjIzLjYyQzEwMzcuMTQgMjIzLjYyIDEwMzYuMTEgMjI0LjA1NSAxMDM1LjMzIDIyNC44MyAxMDM0LjU1IDIyNS42MTMgMTAzNC4xMiAyMjYuNjQ5IDEwMzQuMTIgMjI3Ljc1MiAxMDM0LjEyIDIyOC44NTYgMTAzNC41NSAyMjkuODkxIDEwMzUuMzMgMjMwLjY3NSAxMDM2Ljg5IDIzMi4yMzMgMTAzOS42MSAyMzIuMjMzIDEwNDEuMTcgMjMwLjY3NSAxMDQxLjk1IDIyOS44OTEgMTA0Mi4zOCAyMjguODU2IDEwNDIuMzggMjI3Ljc1MiAxMDQyLjM4IDIyNi42NDkgMTA0MS45NSAyMjUuNjEzIDEwNDEuMTcgMjI0LjgzIDEwNDAuMzkgMjI0LjA1NSAxMDM5LjM1IDIyMy42MiAxMDM4LjI1IDIyMy42MlpNMTAwMS43NSAyMjMuNjJDMTAwMC42NSAyMjMuNjIgOTk5LjYxMyAyMjQuMDU1IDk5OC44MyAyMjQuODMgOTk4LjA1NSAyMjUuNjEzIDk5Ny42MiAyMjYuNjQ5IDk5Ny42MiAyMjcuNzUyIDk5Ny42MiAyMjguODU2IDk5OC4wNTUgMjI5Ljg5MSA5OTguODMgMjMwLjY3NSAxMDAwLjQgMjMyLjIzMyAxMDAzLjExIDIzMi4yMzMgMTAwNC42NyAyMzAuNjc1IDEwMDUuNDUgMjI5Ljg5MSAxMDA1Ljg4IDIyOC44NTYgMTAwNS44OCAyMjcuNzUyIDEwMDUuODggMjI2LjY0OSAxMDA1LjQ1IDIyNS42MTMgMTAwNC42NyAyMjQuODMgMTAwMy44OSAyMjQuMDU1IDEwMDIuODYgMjIzLjYyIDEwMDEuNzUgMjIzLjYyWk0xMDE0LjA3IDIyMS45NzVDMTAxMS42NSAyMjIuNTY1IDEwMDkuMzUgMjIzLjUyMyAxMDA3LjIxIDIyNC44MiAxMDA3LjY5IDIyNS43MSAxMDA3Ljk1IDIyNi43MDcgMTAwNy45NSAyMjcuNzUyIDEwMDcuOTUgMjI5LjQwNyAxMDA3LjMgMjMwLjk2NSAxMDA2LjEzIDIzMi4xMzYgMTAwNC45NyAyMzMuMzA3IDEwMDMuNDEgMjMzLjk0NiAxMDAxLjc1IDIzMy45NDYgMTAwMC43MSAyMzMuOTQ2IDk5OS43MSAyMzMuNjk0IDk5OC44MiAyMzMuMjExIDk5Ny41MjMgMjM1LjM0OSA5OTYuNTY1IDIzNy42NTMgOTk1Ljk3NSAyNDAuMDcyIDk5OC41MiAyNDAuODM3IDEwMDAuMzkgMjQzLjIwOCAxMDAwLjM5IDI0Ni4wMDUgMTAwMC4zOSAyNDguODAyIDk5OC41MiAyNTEuMTYzIDk5NS45NzUgMjUxLjkzNyA5OTYuNTY1IDI1NC4zNTcgOTk3LjUyMyAyNTYuNjUxIDk5OC44MiAyNTguNzk5IDk5OS43MSAyNTguMzE1IDEwMDAuNzEgMjU4LjA1NCAxMDAxLjc1IDI1OC4wNTQgMTAwMy40MSAyNTguMDU0IDEwMDQuOTcgMjU4LjcwMiAxMDA2LjE0IDI1OS44NzMgMTAwNy4zMSAyNjEuMDQ0IDEwMDcuOTUgMjYyLjU5MyAxMDA3Ljk1IDI2NC4yNDggMTAwNy45NSAyNjUuMjkzIDEwMDcuNjkgMjY2LjI5IDEwMDcuMjEgMjY3LjE5IDEwMDkuMzUgMjY4LjQ4NyAxMDExLjY1IDI2OS40MzUgMTAxNC4wNyAyNzAuMDM1IDEwMTQuODQgMjY3LjQ4IDEwMTcuMjEgMjY1LjYxMiAxMDIwIDI2NS42MTIgMTAyMi44IDI2NS42MTIgMTAyNS4xNiAyNjcuNDggMTAyNS45NCAyNzAuMDI1IDEwMjguMzYgMjY5LjQzNSAxMDMwLjY1IDI2OC40ODcgMTAzMi44IDI2Ny4xOCAxMDMyLjMyIDI2Ni4yOSAxMDMyLjA1IDI2NS4yOTMgMTAzMi4wNSAyNjQuMjQ4IDEwMzIuMDUgMjYyLjU5MyAxMDMyLjcgMjYxLjA0NCAxMDMzLjg3IDI1OS44NzMgMTAzNS4wNCAyNTguNzAyIDEwMzYuNTkgMjU4LjA1NCAxMDM4LjI1IDI1OC4wNTQgMTAzOS4yOSAyNTguMDU0IDEwNDAuMjkgMjU4LjMxNSAxMDQxLjE5IDI1OC43ODkgMTA0Mi40OSAyNTYuNjUxIDEwNDMuNDQgMjU0LjM1NyAxMDQ0LjA0IDI1MS45MjggMTA0MS40OCAyNTEuMTYzIDEwMzkuNjEgMjQ4LjgwMiAxMDM5LjYxIDI0Ni4wMDUgMTAzOS42MSAyNDMuMjA4IDEwNDEuNDggMjQwLjgzNyAxMDQ0LjAzIDI0MC4wNzIgMTA0My40NCAyMzcuNjUzIDEwNDIuNDkgMjM1LjM0OSAxMDQxLjE4IDIzMy4yMTEgMTA0MC4yOSAyMzMuNjk0IDEwMzkuMjkgMjMzLjk0NiAxMDM4LjI1IDIzMy45NDYgMTAzNi41OSAyMzMuOTQ2IDEwMzUuMDQgMjMzLjI5OCAxMDMzLjg3IDIzMi4xMjcgMTAzMi43IDIzMC45NjUgMTAzMi4wNSAyMjkuNDA3IDEwMzIuMDUgMjI3Ljc1MiAxMDMyLjA1IDIyNi43MDcgMTAzMi4zMiAyMjUuNzEgMTAzMi43OSAyMjQuODIgMTAzMC42NSAyMjMuNTIzIDEwMjguMzYgMjIyLjU2NSAxMDI1LjkzIDIyMS45NzUgMTAyNS4xNiAyMjQuNTIgMTAyMi44IDIyNi4zODggMTAyMCAyMjYuMzg4IDEwMTcuMjEgMjI2LjM4OCAxMDE0Ljg0IDIyNC41MiAxMDE0LjA3IDIyMS45NzVaTTEwMjAgMjE2LjA2MUMxMDE3LjcyIDIxNi4wNjEgMTAxNS44NyAyMTcuOTIgMTAxNS44NyAyMjAuMTk0IDEwMTUuODcgMjIyLjQ2OCAxMDE3LjcyIDIyNC4zMjYgMTAyMCAyMjQuMzI2IDEwMjIuMjggMjI0LjMyNiAxMDI0LjEzIDIyMi40NjggMTAyNC4xMyAyMjAuMTk0IDEwMjQuMTMgMjE3LjkyIDEwMjIuMjggMjE2LjA2MSAxMDIwIDIxNi4wNjFaTTEwMjAgMjE0QzEwMjMuMzEgMjE0IDEwMjYuMDEgMjE2LjYxMyAxMDI2LjE4IDIxOS44ODQgMTAyOC45OSAyMjAuNTQyIDEwMzEuNjQgMjIxLjY0NiAxMDM0LjEgMjIzLjE2NSAxMDM1LjI0IDIyMi4xMjkgMTAzNi43IDIyMS41NTggMTAzOC4yNSAyMjEuNTU4IDEwMzkuOSAyMjEuNTU4IDEwNDEuNDYgMjIyLjIwNyAxMDQyLjYzIDIyMy4zNzggMTA0My44IDIyNC41MzkgMTA0NC40NCAyMjYuMDk3IDEwNDQuNDQgMjI3Ljc1MiAxMDQ0LjQ0IDIyOS4zMDEgMTA0My44NyAyMzAuNzYyIDEwNDIuODQgMjMxLjkwNCAxMDQ0LjM1IDIzNC4zNjIgMTA0NS40NiAyMzcuMDI0IDEwNDYuMTIgMjM5LjgyMSAxMDQ5LjM5IDIzOS45ODUgMTA1MiAyNDIuNjg1IDEwNTIgMjQ2LjAwNSAxMDUyIDI0OS4zMTUgMTA0OS4zOSAyNTIuMDE1IDEwNDYuMTIgMjUyLjE3OSAxMDQ1LjQ2IDI1NC45ODYgMTA0NC4zNSAyNTcuNjM4IDEwNDIuODQgMjYwLjA5NiAxMDQzLjg3IDI2MS4yMzggMTA0NC40NCAyNjIuNjk5IDEwNDQuNDQgMjY0LjI0OCAxMDQ0LjQ0IDI2NS45MDMgMTA0My44IDI2Ny40NjEgMTA0Mi42MyAyNjguNjMyIDEwNDEuNDYgMjY5LjgwMyAxMDM5LjkgMjcwLjQ0MiAxMDM4LjI1IDI3MC40NDIgMTAzNi43IDI3MC40NDIgMTAzNS4yNCAyNjkuODcxIDEwMzQuMSAyNjguODM1IDEwMzEuNjQgMjcwLjM1NCAxMDI4Ljk5IDI3MS40NTggMTAyNi4xOCAyNzIuMTE2IDEwMjYuMDEgMjc1LjM4NyAxMDIzLjMxIDI3OCAxMDIwIDI3OCAxMDE2LjY5IDI3OCAxMDEzLjk5IDI3NS4zODcgMTAxMy44MiAyNzIuMTE2IDEwMTEuMDEgMjcxLjQ1OCAxMDA4LjM2IDI3MC4zNTQgMTAwNS45IDI2OC44MzUgMTAwNC43NiAyNjkuODcxIDEwMDMuMyAyNzAuNDQyIDEwMDEuNzUgMjcwLjQ0MiAxMDAwLjEgMjcwLjQ0MiA5OTguNTM5IDI2OS44MDMgOTk3LjM3OCAyNjguNjMyIDk5Ni4yMDcgMjY3LjQ2MSA5OTUuNTU4IDI2NS45MDMgOTk1LjU1OCAyNjQuMjQ4IDk5NS41NTggMjYyLjY5OSA5OTYuMTI5IDI2MS4yMzggOTk3LjE2NSAyNjAuMDk2IDk5NS42NDYgMjU3LjYzOCA5OTQuNTQyIDI1NC45ODYgOTkzLjg4NCAyNTIuMTc5IDk5MC42MTMgMjUyLjAxNSA5ODggMjQ5LjMxNSA5ODggMjQ2LjAwNSA5ODggMjQyLjY4NSA5OTAuNjEzIDIzOS45ODUgOTkzLjg4NCAyMzkuODIxIDk5NC41NDIgMjM3LjAxNCA5OTUuNjQ2IDIzNC4zNjIgOTk3LjE2NSAyMzEuOTA0IDk5Ni4xMjkgMjMwLjc2MiA5OTUuNTU4IDIyOS4zMDEgOTk1LjU1OCAyMjcuNzUyIDk5NS41NTggMjI2LjA5NyA5OTYuMjA3IDIyNC41MzkgOTk3LjM3OCAyMjMuMzc4IDk5OC41MzkgMjIyLjIwNyAxMDAwLjEgMjIxLjU1OCAxMDAxLjc1IDIyMS41NTggMTAwMy4zIDIyMS41NTggMTAwNC43NiAyMjIuMTI5IDEwMDUuOSAyMjMuMTY1IDEwMDguMzYgMjIxLjY0NiAxMDExLjAyIDIyMC41NDIgMTAxMy44MiAyMTkuODg0IDEwMTMuOTkgMjE2LjYxMyAxMDE2LjY5IDIxNCAxMDIwIDIxNFoiIGZpbGwtcnVsZT0iZXZlbm9kZCIvPjwvZz48L3N2Zz4=;fillOpacity=100;portConstraintRotation=0;backgroundOutline=0;comic=0;noLabel=0;container=0;sketch=0;labelBorderColor=none;" parent="WIyWlLk6GJQsqaUBKTNV-1" vertex="1">
          <mxGeometry x="503" y="530.5" width="60" height="60" as="geometry" />
        </mxCell>
        <mxCell id="7WMX1Rni2dbUCdkuUEu--9" style="edgeStyle=orthogonalEdgeStyle;curved=1;rounded=0;orthogonalLoop=1;jettySize=auto;html=1;entryX=0.475;entryY=0.05;entryDx=0;entryDy=0;entryPerimeter=0;startArrow=oval;startFill=1;endArrow=oval;endFill=1;fillColor=#f8cecc;strokeColor=#b85450;" parent="WIyWlLk6GJQsqaUBKTNV-1" source="7WMX1Rni2dbUCdkuUEu--1" target="7WMX1Rni2dbUCdkuUEu--6" edge="1">
          <mxGeometry relative="1" as="geometry" />
        </mxCell>
        <mxCell id="7WMX1Rni2dbUCdkuUEu--10" style="edgeStyle=orthogonalEdgeStyle;curved=1;rounded=0;orthogonalLoop=1;jettySize=auto;html=1;startArrow=oval;startFill=1;endArrow=oval;endFill=1;fillColor=#d5e8d4;strokeColor=#82b366;" parent="WIyWlLk6GJQsqaUBKTNV-1" source="7WMX1Rni2dbUCdkuUEu--1" target="7WMX1Rni2dbUCdkuUEu--0" edge="1">
          <mxGeometry relative="1" as="geometry" />
        </mxCell>
        <mxCell id="7WMX1Rni2dbUCdkuUEu--1" value="经济演化单元" style="aspect=fixed;html=1;points=[];align=center;image;fontSize=12;image=data:image/svg+xml,PHN2ZyB4bWxucz0iaHR0cDovL3d3dy53My5vcmcvMjAwMC9zdmciIHhtbG5zOnhsaW5rPSJodHRwOi8vd3d3LnczLm9yZy8xOTk5L3hsaW5rIiB3aWR0aD0iNjYiIGhlaWdodD0iNjAiIG92ZXJmbG93PSJoaWRkZW4iIHZpZXdCb3g9IjAgMCA2NiA2MCI+PGRlZnM+PGNsaXBQYXRoIGlkPSJjbGlwMCI+PHJlY3QgeD0iNjMxIiB5PSI0NjYiIHdpZHRoPSI2NiIgaGVpZ2h0PSI2MCIvPjwvY2xpcFBhdGg+PC9kZWZzPjxnIGNsaXAtcGF0aD0idXJsKCNjbGlwMCkiIHRyYW5zZm9ybT0idHJhbnNsYXRlKC02MzEgLTQ2NikiPjxwYXRoIGQ9Ik02NzQuNzYzIDUxOS42NjFDNjc0LjE4NSA1MTkuNjYxIDY3My43MDQgNTIwLjE0NCA2NzMuNzA0IDUyMC43MjMgNjczLjcwNCA1MjEuMzAxIDY3NC4xODUgNTIxLjc4NCA2NzQuNzYzIDUyMS43ODQgNjc1LjM0MSA1MjEuNzg0IDY3NS44MjIgNTIxLjMwMSA2NzUuODIyIDUyMC43MjMgNjc1LjgyMiA1MjAuMTQ0IDY3NS4zNDEgNTE5LjY2MSA2NzQuNzYzIDUxOS42NjFaTTYzOS41OTMgNTE1LjU0NUM2MzguNTY1IDUxNS41NDUgNjM3LjczMSA1MTYuMzgxIDYzNy43MzEgNTE3LjQyNiA2MzcuNzMxIDUxOC40NTUgNjM4LjU2NSA1MTkuMzA3IDYzOS41OTMgNTE5LjMwNyA2NDAuNjM2IDUxOS4zMDcgNjQxLjQ3MSA1MTguNDU1IDY0MS40NzEgNTE3LjQyNiA2NDEuNDcxIDUxNi4zODEgNjQwLjYzNiA1MTUuNTQ1IDYzOS41OTMgNTE1LjU0NVpNNjg5LjA2NSA1MTAuODk3QzY4Ny4wMTEgNTEwLjg5NyA2ODUuMzQxIDUxMi41NyA2ODUuMzQxIDUxNC42MjggNjg1LjM0MSA1MTYuNjcgNjg3LjAxMSA1MTguMzQzIDY4OS4wNjUgNTE4LjM0MyA2OTEuMTIgNTE4LjM0MyA2OTIuNzkgNTE2LjY3IDY5Mi43OSA1MTQuNjI4IDY5Mi43OSA1MTIuNTcgNjkxLjEyIDUxMC44OTcgNjg5LjA2NSA1MTAuODk3Wk02NjQuOTA1IDQ5OS4xMjEgNjY0LjkwNSA1MDUuMzc3QzY2Ni4wMTIgNTA0Ljc5OCA2NjYuNzgzIDUwMy42MDggNjY2Ljc4MyA1MDIuMjQxIDY2Ni43ODMgNTAwLjg3NCA2NjYuMDEyIDQ5OS43IDY2NC45MDUgNDk5LjEyMVpNNjYxLjY5NiA0ODguOTU4QzY2MC42MzcgNDg5LjU1MyA2NTkuOTMxIDQ5MC42OTUgNjU5LjkzMSA0OTIuMDE0IDY1OS45MzEgNDkzLjMzMiA2NjAuNjM3IDQ5NC40NzQgNjYxLjY5NiA0OTUuMDg1Wk02NjMuMyA0ODIuNzM1QzY2NC4xODMgNDgyLjczNSA2NjQuOTA1IDQ4My40NTkgNjY0LjkwNSA0ODQuMzQzTDY2NC45MDUgNDg1LjQ2OUM2NjcuODc0IDQ4Ni4xMjggNjcwLjE4NSA0ODguNDYgNjcwLjQ3NCA0ODguNzY2IDY3MS4wODMgNDg5LjQwOSA2NzEuMDY3IDQ5MC40MjIgNjcwLjQyNSA0OTEuMDMzIDY2OS43ODQgNDkxLjY0NCA2NjguNzczIDQ5MS42MjggNjY4LjE2MyA0OTAuOTg1IDY2Ny42NjUgNDkwLjQ3IDY2Ni4zNDkgNDg5LjM2IDY2NC45MDUgNDg4LjgxNEw2NjQuOTA1IDQ5NS43MTJDNjY3LjgxIDQ5Ni40MiA2NjkuOTkyIDQ5OS4wNzMgNjY5Ljk5MiA1MDIuMjQxIDY2OS45OTIgNTA1LjQwOSA2NjcuODEgNTA4LjA3OCA2NjQuOTA1IDUwOC43ODZMNjY0LjkwNSA1MDkuOTI3QzY2NC45MDUgNTEwLjgxMiA2NjQuMTgzIDUxMS41MzUgNjYzLjMgNTExLjUzNSA2NjIuNDAyIDUxMS41MzUgNjYxLjY5NiA1MTAuODEyIDY2MS42OTYgNTA5LjkyN0w2NjEuNjk2IDUwOC43MjFDNjU4LjcyNyA1MDcuODg1IDY1Ni4zNTIgNTA1LjEzNSA2NTYuMDQ3IDUwNC43ODIgNjU1LjQ2OSA1MDQuMDkgNjU1LjU2NiA1MDMuMDc3IDY1Ni4yNCA1MDIuNTE0IDY1Ni45MTQgNTAxLjkzNSA2NTcuOTI1IDUwMi4wMzIgNjU4LjUwMiA1MDIuNzA3IDY1OC45ODQgNTAzLjI3IDY2MC4zIDUwNC41NzMgNjYxLjY5NiA1MDUuMjhMNjYxLjY5NiA0OTguNTI2QzY1OC44MzkgNDk3Ljc3MSA2NTYuNzIxIDQ5NS4xMzMgNjU2LjcyMSA0OTIuMDE0IDY1Ni43MjEgNDg4Ljg5NCA2NTguODM5IDQ4Ni4yNTcgNjYxLjY5NiA0ODUuNTAxTDY2MS42OTYgNDg0LjM0M0M2NjEuNjk2IDQ4My40NTkgNjYyLjQwMiA0ODIuNzM1IDY2My4zIDQ4Mi43MzVaTTY2My4zMDIgNDgxLjMwOUM2NTQuNTg1IDQ4MS4zMDkgNjQ3LjQ5IDQ4OC40MTYgNjQ3LjQ5IDQ5Ny4xMzIgNjQ3LjQ5IDUwNS44NjQgNjU0LjU4NSA1MTIuOTU2IDY2My4zMDIgNTEyLjk1NiA2NzIuMDAyIDUxMi45NTYgNjc5LjA5NyA1MDUuODY0IDY3OS4wOTcgNDk3LjEzMiA2NzkuMDk3IDQ4OC40MTYgNjcyLjAwMiA0ODEuMzA5IDY2My4zMDIgNDgxLjMwOVpNNjg1LjgwNyA0NzQuMzNDNjgzLjc2OCA0NzQuMzMgNjgyLjA5OSA0NzYuMDAyIDY4Mi4wOTkgNDc4LjA2MSA2ODIuMDk5IDQ4MC4xMTkgNjgzLjc2OCA0ODEuNzkxIDY4NS44MDcgNDgxLjc5MSA2ODcuODYyIDQ4MS43OTEgNjg5LjUzMSA0ODAuMTE5IDY4OS41MzEgNDc4LjA2MSA2ODkuNTMxIDQ3Ni4wMDIgNjg3Ljg2MiA0NzQuMzMgNjg1LjgwNyA0NzQuMzNaTTYzOC45MzUgNDY5LjIxNkM2MzYuODggNDY5LjIxNiA2MzUuMjEgNDcwLjg4OSA2MzUuMjEgNDcyLjk0NyA2MzUuMjEgNDc0Ljk4OSA2MzYuODggNDc2LjY2MSA2MzguOTM1IDQ3Ni42NjEgNjQwLjk4OSA0NzYuNjYxIDY0Mi42NTkgNDc0Ljk4OSA2NDIuNjU5IDQ3Mi45NDcgNjQyLjY1OSA0NzAuODg5IDY0MC45ODkgNDY5LjIxNiA2MzguOTM1IDQ2OS4yMTZaTTYzOC45MzUgNDY2QzY0Mi43NTUgNDY2IDY0NS44NjkgNDY5LjEwNCA2NDUuODY5IDQ3Mi45NDcgNjQ1Ljg2OSA0NzQuMjMzIDY0NS41IDQ3NS40MzkgNjQ0Ljg5IDQ3Ni40ODVMNjUxLjAzOCA0ODIuNTk1QzY1NC4zNDUgNDc5Ljc4MSA2NTguNjMgNDc4LjA5MyA2NjMuMzAyIDQ3OC4wOTMgNjY4LjY0NyA0NzguMDkzIDY3My40NzkgNDgwLjMxMiA2NzYuOTMgNDgzLjg4Mkw2NzkuODM1IDQ4MS41NjZDNjc5LjIyNiA0ODAuNTM3IDY3OC44ODggNDc5LjM0NyA2NzguODg4IDQ3OC4wNjEgNjc4Ljg4OCA0NzQuMjMzIDY4MS45ODYgNDcxLjExNCA2ODUuODA3IDQ3MS4xMTQgNjg5LjYyNyA0NzEuMTE0IDY5Mi43NDEgNDc0LjIzMyA2OTIuNzQxIDQ3OC4wNjEgNjkyLjc0MSA0ODEuODg4IDY4OS42MjcgNDg1LjAwNyA2ODUuODA3IDQ4NS4wMDcgNjg0LjQyNiA0ODUuMDA3IDY4My4xNDIgNDg0LjYwNSA2ODIuMDY3IDQ4My44OThMNjc4Ljk2OSA0ODYuMzc0QzY4MS4wNzEgNDg5LjQ0NiA2ODIuMzA4IDQ5My4xNDQgNjgyLjMwOCA0OTcuMTMyIDY4Mi4zMDggNTAwLjQ2MSA2ODEuNDQxIDUwMy41OTcgNjc5Ljk0OCA1MDYuMzE0TDY4NC41MjMgNTA5LjM4NkM2ODUuNzQzIDUwOC4zMjQgNjg3LjMzMiA1MDcuNjgxIDY4OS4wNjUgNTA3LjY4MSA2OTIuODg2IDUwNy42ODEgNjk2IDUxMC44MDEgNjk2IDUxNC42MjggNjk2IDUxOC40NTUgNjkyLjg4NiA1MjEuNTU5IDY4OS4wNjUgNTIxLjU1OSA2ODUuMjQ1IDUyMS41NTkgNjgyLjEzMSA1MTguNDU1IDY4Mi4xMzEgNTE0LjYyOCA2ODIuMTMxIDUxMy42OTUgNjgyLjMyMyA1MTIuODExIDY4Mi42NDUgNTExLjk5MUw2NzguMTUgNTA5QzY3Ni43NjkgNTEwLjczNiA2NzUuMSA1MTIuMjE2IDY3My4yMDYgNTEzLjM5TDY3NC43MzEgNTE2LjQ0NUM2NzQuNzQ3IDUxNi40NDUgNjc0Ljc0NyA1MTYuNDQ1IDY3NC43NjMgNTE2LjQ0NSA2NzcuMTIzIDUxNi40NDUgNjc5LjAzMyA1MTguMzU5IDY3OS4wMzMgNTIwLjcyMyA2NzkuMDMzIDUyMy4wODYgNjc3LjEyMyA1MjUgNjc0Ljc2MyA1MjUgNjcyLjQwMyA1MjUgNjcwLjQ5MyA1MjMuMDg2IDY3MC40OTMgNTIwLjcyMyA2NzAuNDkzIDUxOS41MzMgNjcwLjk3NSA1MTguNDcxIDY3MS43NjEgNTE3LjY4M0w2NzAuMzMzIDUxNC44MjFDNjY4LjE0OSA1MTUuNjg5IDY2NS43NzQgNTE2LjE3MiA2NjMuMzAyIDUxNi4xNzIgNjU4LjAyMSA1MTYuMTcyIDY1My4yMjEgNTE0LjAwMSA2NDkuNzg2IDUxMC41MTFMNjQ0LjE2OCA1MTUuMTkxQzY0NC41MDUgNTE1Ljg2NiA2NDQuNjgxIDUxNi42MjIgNjQ0LjY4MSA1MTcuNDI2IDY0NC42ODEgNTIwLjIyNCA2NDIuNDAyIDUyMi41MjQgNjM5LjU5MyA1MjIuNTI0IDYzNi44IDUyMi41MjQgNjM0LjUyIDUyMC4yMjQgNjM0LjUyIDUxNy40MjYgNjM0LjUyIDUxNC42MTIgNjM2LjggNTEyLjMyOCA2MzkuNTkzIDUxMi4zMjggNjQwLjQyNyA1MTIuMzI4IDY0MS4yMTQgNTEyLjUzNyA2NDEuOTIgNTEyLjg5MUw2NDcuNzMxIDUwOC4wMzVDNjQ1LjU2NCA1MDQuOTQ3IDY0NC4yOCA1MDEuMTg1IDY0NC4yOCA0OTcuMTMyIDY0NC4yOCA0OTIuNDY5IDY0NS45ODIgNDg4LjE5MSA2NDguNzc0IDQ4NC44NjNMNjQyLjY1OSA0NzguOEM2NDEuNTgzIDQ3OS40NzYgNjQwLjI5OSA0NzkuODc4IDYzOC45MzUgNDc5Ljg3OCA2MzUuMTE0IDQ3OS44NzggNjMyIDQ3Ni43NzQgNjMyIDQ3Mi45NDcgNjMyIDQ2OS4xMDQgNjM1LjExNCA0NjYgNjM4LjkzNSA0NjZaIiBmaWxsLXJ1bGU9ImV2ZW5vZGQiLz48L2c+PC9zdmc+;fillOpacity=100;portConstraintRotation=0;backgroundOutline=0;comic=0;noLabel=0;container=0;sketch=0;" parent="WIyWlLk6GJQsqaUBKTNV-1" vertex="1">
          <mxGeometry x="367" y="386.77000000000004" width="65.99" height="60" as="geometry" />
        </mxCell>
        <mxCell id="7WMX1Rni2dbUCdkuUEu--12" style="edgeStyle=orthogonalEdgeStyle;curved=1;rounded=0;orthogonalLoop=1;jettySize=auto;html=1;entryX=1;entryY=0.467;entryDx=0;entryDy=0;entryPerimeter=0;startArrow=oval;startFill=1;endArrow=oval;endFill=1;exitX=0.509;exitY=1.012;exitDx=0;exitDy=0;exitPerimeter=0;fillColor=#d5e8d4;strokeColor=#82b366;" parent="WIyWlLk6GJQsqaUBKTNV-1" source="7WMX1Rni2dbUCdkuUEu--2" target="7WMX1Rni2dbUCdkuUEu--0" edge="1">
          <mxGeometry relative="1" as="geometry" />
        </mxCell>
        <mxCell id="7WMX1Rni2dbUCdkuUEu--15" style="edgeStyle=orthogonalEdgeStyle;curved=1;rounded=0;orthogonalLoop=1;jettySize=auto;html=1;startArrow=oval;startFill=1;endArrow=oval;endFill=1;fillColor=#6a00ff;strokeColor=#3700CC;" parent="WIyWlLk6GJQsqaUBKTNV-1" source="7WMX1Rni2dbUCdkuUEu--2" edge="1">
          <mxGeometry relative="1" as="geometry">
            <mxPoint x="399" y="383" as="targetPoint" />
            <Array as="points">
              <mxPoint x="666" y="353" />
              <mxPoint x="399" y="353" />
            </Array>
          </mxGeometry>
        </mxCell>
        <mxCell id="7WMX1Rni2dbUCdkuUEu--17" style="edgeStyle=orthogonalEdgeStyle;curved=1;rounded=0;orthogonalLoop=1;jettySize=auto;html=1;entryX=0.984;entryY=0.508;entryDx=0;entryDy=0;entryPerimeter=0;startArrow=oval;startFill=1;endArrow=oval;endFill=1;fillColor=#f8cecc;strokeColor=#b85450;" parent="WIyWlLk6GJQsqaUBKTNV-1" source="7WMX1Rni2dbUCdkuUEu--2" target="7WMX1Rni2dbUCdkuUEu--6" edge="1">
          <mxGeometry relative="1" as="geometry" />
        </mxCell>
        <mxCell id="7WMX1Rni2dbUCdkuUEu--2" value="社会管理单元" style="aspect=fixed;html=1;points=[];align=center;image;fontSize=12;image=data:image/svg+xml,PHN2ZyB4bWxucz0iaHR0cDovL3d3dy53My5vcmcvMjAwMC9zdmciIHhtbG5zOnhsaW5rPSJodHRwOi8vd3d3LnczLm9yZy8xOTk5L3hsaW5rIiB3aWR0aD0iNjUiIGhlaWdodD0iNjYiIG92ZXJmbG93PSJoaWRkZW4iIHZpZXdCb3g9IjAgMCA2NSA2NiI+PGRlZnM+PGNsaXBQYXRoIGlkPSJjbGlwMCI+PHJlY3QgeD0iNzM4IiB5PSI0NjUiIHdpZHRoPSI2NSIgaGVpZ2h0PSI2NiIvPjwvY2xpcFBhdGg+PC9kZWZzPjxnIGNsaXAtcGF0aD0idXJsKCNjbGlwMCkiIHRyYW5zZm9ybT0idHJhbnNsYXRlKC03MzggLTQ2NSkiPjxwYXRoIGQ9Ik03OTUuMTkzIDUxOS4xMDFDNzkyLjg4MSA1MTkuMTAxIDc5MS4xMSA1MjAuODcxIDc5MS4xMSA1MjMuMTczIDc5MS4xMSA1MjUuNDg1IDc5Mi44ODEgNTI3LjI1NSA3OTUuMTkzIDUyNy4yNTUgNzk3LjQ5NSA1MjcuMjU1IDc5OS4yNjUgNTI1LjQ4NSA3OTkuMjY1IDUyMy4xNzMgNzk5LjI2NSA1MjAuODcxIDc5Ny40OTUgNTE5LjEwMSA3OTUuMTkzIDUxOS4xMDFaTTc0NC44MDcgNTE5LjEwMUM3NDIuNTA1IDUxOS4xMDEgNzQwLjczNSA1MjAuODcxIDc0MC43MzUgNTIzLjE3MyA3NDAuNzM1IDUyNS40ODUgNzQyLjUwNSA1MjcuMjU1IDc0NC44MDcgNTI3LjI1NSA3NDcuMTE5IDUyNy4yNTUgNzQ4Ljg5IDUyNS40ODUgNzQ4Ljg5IDUyMy4xNzMgNzQ4Ljg5IDUyMC44NzEgNzQ3LjExOSA1MTkuMTAxIDc0NC44MDcgNTE5LjEwMVpNNzY2LjE3MyA1MDQuOTQ1Qzc2Mi43OCA1MDQuOTQ1IDc1OS45MTcgNTA3LjY2IDc1OS45MTcgNTExLjIwMUw3NTkuOTE3IDUxMy44MDhDNzYyLjgyOSA1MTUuNjc3IDc2Ni4yODIgNTE2Ljc0OSA3NjkuOTkgNTE2Ljc0OSA3NzMuODI3IDUxNi43NDkgNzc3LjM3OCA1MTUuNjA4IDc4MC4zMzkgNTEzLjY0MUw3ODAuMzI5IDUxMy42NDEgNzgwLjMyOSA1MTEuMjAxQzc4MC4zMjkgNTA3LjgwOCA3NzcuNjE0IDUwNC45NDUgNzc0LjA3MyA1MDQuOTQ1Wk03NjkuOTkyIDQ4Ny42NEM3NjcuNTQzIDQ4Ny42NCA3NjUuNjQ1IDQ4OS42ODYgNzY1LjY0NSA0OTEuOTk5IDc2NS42NDUgNDk0LjMxMSA3NjcuNjkxIDQ5Ni4zNTcgNzY5Ljk5MiA0OTYuMzU3IDc3Mi4zMDQgNDk2LjM1NyA3NzQuMzQ5IDQ5NC4zMTEgNzc0LjM0OSA0OTEuOTk5IDc3NC4zNDkgNDg5LjY4NiA3NzIuNDUxIDQ4Ny42NCA3NjkuOTkyIDQ4Ny42NFpNNzY5Ljk5MiA0ODUuMDQyQzc3My45NDYgNDg1LjA0MiA3NzcuMDc0IDQ4OC4xODEgNzc3LjA3NCA0OTIuMTI2IDc3Ny4wNzQgNDk2LjA4MiA3NzMuOTQ2IDQ5OS4yMTEgNzY5Ljk5MiA0OTkuMjExIDc2Ni4wNDggNDk5LjIxMSA3NjIuOTExIDQ5Ni4wOTIgNzYyLjkxMSA0OTIuMTI2IDc2Mi45MTEgNDg4LjE4MSA3NjYuMDQ4IDQ4NS4wNDIgNzY5Ljk5MiA0ODUuMDQyWk03NzAuMDEgNDc5LjI0MUM3NTkuNjQyIDQ3OS4yNDEgNzUxLjI1IDQ4Ny42MzIgNzUxLjI1IDQ5Ny45OSA3NTEuMjUgNTAzLjMzMiA3NTMuNDkzIDUwOC4xNjIgNzU3LjA3NCA1MTEuNTY1TDc1Ny4wNzQgNTExLjE5MkM3NTcuMDc0IDUwNi4yODMgNzYxLjAxOSA1MDIuMiA3NjYuMDU1IDUwMi4yTDc3My45NTUgNTAyLjJDNzc4Ljg2MyA1MDIuMiA3ODIuOTM2IDUwNi4xNTUgNzgyLjkzNiA1MTEuMTkyTDc4Mi45MzYgNTExLjU2NUM3ODYuNTM2IDUwOC4xNjIgNzg4Ljc1OSA1MDMuMzMyIDc4OC43NTkgNDk3Ljk5IDc4OC43NTkgNDg3LjYzMiA3ODAuMzY4IDQ3OS4yNDEgNzcwLjAxIDQ3OS4yNDFaTTc5NS4xNzMgNDY4LjczNUM3OTIuODcxIDQ2OC43MzUgNzkxLjEwMSA0NzAuNTA1IDc5MS4xMDEgNDcyLjgwNyA3OTEuMTAxIDQ3NS4xMTkgNzkyLjg3MSA0NzYuODkgNzk1LjE3MyA0NzYuODkgNzk3LjQ4NSA0NzYuODkgNzk5LjI1NSA0NzUuMTE5IDc5OS4yNTUgNDcyLjgwNyA3OTkuMjU1IDQ3MC41MDUgNzk3LjQ4NSA0NjguNzM1IDc5NS4xNzMgNDY4LjczNVpNNzQ0LjgwNyA0NjguNzM1Qzc0Mi41MDUgNDY4LjczNSA3NDAuNzM1IDQ3MC41MDUgNzQwLjczNSA0NzIuODA3IDc0MC43MzUgNDc1LjExOSA3NDIuNTA1IDQ3Ni44OSA3NDQuODA3IDQ3Ni44OSA3NDcuMTE5IDQ3Ni44OSA3NDguODkgNDc1LjExOSA3NDguODkgNDcyLjgwNyA3NDguODkgNDcwLjUwNSA3NDcuMTE5IDQ2OC43MzUgNzQ0LjgwNyA0NjguNzM1Wk03NDQuODA3IDQ2NkM3NDguMTUyIDQ2NiA3NTAuODY3IDQ2OC4zMTIgNzUxLjQ4NyA0NzEuNDVMNzY5Ljk4IDQ3MS40NUM3NzAuNzk3IDQ3MS40NSA3NzEuMzQ4IDQ3Mi4wMDEgNzcxLjM0OCA0NzIuODA3TDc3MS4zNDggNDc2LjY2M0M3ODIuMDIxIDQ3Ny4zMzIgNzkwLjU2OSA0ODUuODUxIDc5MS4zMDcgNDk2LjQ5NUw3OTMuODE2IDQ5Ni40OTUgNzkzLjgxNiA0NzkuNDg3Qzc5MC42NzcgNDc4Ljg2NyA3ODguMzY2IDQ3Ni4xNTIgNzg4LjM2NiA0NzIuODA3IDc4OC4zNjYgNDY4Ljk5MSA3OTEuMzU2IDQ2NiA3OTUuMTczIDQ2NiA3OTguOTkgNDY2IDgwMS45OCA0NjguOTkxIDgwMS45OCA0NzIuODA3IDgwMS45OCA0NzYuMTUyIDc5OS42NzggNDc4Ljg2NyA3OTYuNTQgNDc5LjQ4N0w3OTYuNTQgNDk3Ljg1M0M3OTYuNTQgNDk4LjY1OSA3OTUuOTkgNDk5LjIxIDc5NS4xNzMgNDk5LjIxTDc5MS4zMzcgNDk5LjIxQzc5MC43MTcgNTA5Ljk5MSA3ODIuMTI5IDUxOC42MzggNzcxLjM1OCA1MTkuMzE3TDc3MS4zNTggNTIxLjgxNiA3ODguNTA0IDUyMS44MTZDNzg5LjExMyA1MTguNjc3IDc5MS44MjggNTE2LjM2NiA3OTUuMTczIDUxNi4zNjYgNzk4Ljk5IDUxNi4zNjYgODAyIDUxOS4zNTYgODAyIDUyMy4xNzMgODAyIDUyNi45OSA3OTkuMDEgNTI5Ljk4IDc5NS4xOTMgNTI5Ljk4IDc5MS44NDggNTI5Ljk4IDc4OS4xMzMgNTI3LjY3OCA3ODguNTEzIDUyNC41NEw3NzAuMDEgNTI0LjU0Qzc2OS4xOTMgNTI0LjU0IDc2OC42NDIgNTIzLjk5IDc2OC42NDIgNTIzLjE3M0w3NjguNjQyIDUxOS4zMTdDNzU3Ljg3MSA1MTguNjM4IDc0OS4yNzMgNTA5Ljk5MSA3NDguNjYzIDQ5OS4yMUw3NDYuMTc1IDQ5OS4yMSA3NDYuMTc1IDUxNi41MTNDNzQ5LjMxMyA1MTcuMTMzIDc1MS42MTUgNTE5Ljg0OCA3NTEuNjE1IDUyMy4xOTMgNzUxLjYxNSA1MjcuMDEgNzQ4LjYyNCA1MzAgNzQ0LjgwNyA1MzAgNzQwLjk5IDUzMCA3MzggNTI3LjAxIDczOCA1MjMuMTkzIDczOCA1MTkuODQ4IDc0MC4zMTIgNTE3LjEzMyA3NDMuNDUgNTE2LjUxM0w3NDMuNDUgNDk3Ljg2MkM3NDMuNDUgNDk3LjA0NiA3NDQuMDAxIDQ5Ni40OTUgNzQ0LjgwNyA0OTYuNDk1TDc0OC42NjMgNDk2LjQ5NUM3NDkuNDExIDQ4NS44NTEgNzU3Ljk1IDQ3Ny4zMzIgNzY4LjYzMyA0NzYuNjYzTDc2OC42MzMgNDc0LjE3NSA3NTEuNDg3IDQ3NC4xNzVDNzUwLjg2NyA0NzcuMzEzIDc0OC4xNTIgNDc5LjYxNSA3NDQuODA3IDQ3OS42MTUgNzQwLjk5IDQ3OS42MTUgNzM4IDQ3Ni42MjQgNzM4IDQ3Mi44MDcgNzM4IDQ2OC45OTEgNzQwLjk5IDQ2NiA3NDQuODA3IDQ2NloiIGZpbGwtcnVsZT0iZXZlbm9kZCIvPjwvZz48L3N2Zz4=;fillOpacity=100;portConstraintRotation=0;backgroundOutline=0;comic=0;noLabel=0;container=0;sketch=0;" parent="WIyWlLk6GJQsqaUBKTNV-1" vertex="1">
          <mxGeometry x="636.54" y="386.77" width="58.93" height="60" as="geometry" />
        </mxCell>
        <mxCell id="7WMX1Rni2dbUCdkuUEu--3" value="" style="strokeWidth=2;html=1;shape=mxgraph.flowchart.annotation_1;align=left;pointerEvents=1;sketch=0;rotation=90;" parent="WIyWlLk6GJQsqaUBKTNV-1" vertex="1">
          <mxGeometry x="376.03000000000003" y="-30" width="25" height="690" as="geometry" />
        </mxCell>
        <mxCell id="7WMX1Rni2dbUCdkuUEu--7" style="edgeStyle=orthogonalEdgeStyle;rounded=0;orthogonalLoop=1;jettySize=auto;html=1;entryX=-0.017;entryY=0.533;entryDx=0;entryDy=0;entryPerimeter=0;exitX=0.485;exitY=1.012;exitDx=0;exitDy=0;exitPerimeter=0;curved=1;startArrow=oval;startFill=1;endArrow=oval;endFill=1;fillColor=#f8cecc;strokeColor=#b85450;" parent="WIyWlLk6GJQsqaUBKTNV-1" source="7WMX1Rni2dbUCdkuUEu--5" target="7WMX1Rni2dbUCdkuUEu--6" edge="1">
          <mxGeometry relative="1" as="geometry" />
        </mxCell>
        <mxCell id="7WMX1Rni2dbUCdkuUEu--16" style="edgeStyle=orthogonalEdgeStyle;curved=1;rounded=0;orthogonalLoop=1;jettySize=auto;html=1;entryX=0.492;entryY=-0.079;entryDx=0;entryDy=0;entryPerimeter=0;startArrow=oval;startFill=1;endArrow=oval;endFill=1;fillColor=#6a00ff;strokeColor=#3700CC;" parent="WIyWlLk6GJQsqaUBKTNV-1" source="7WMX1Rni2dbUCdkuUEu--5" target="7WMX1Rni2dbUCdkuUEu--1" edge="1">
          <mxGeometry relative="1" as="geometry">
            <Array as="points">
              <mxPoint x="133" y="353" />
              <mxPoint x="400" y="353" />
            </Array>
          </mxGeometry>
        </mxCell>
        <mxCell id="7WMX1Rni2dbUCdkuUEu--18" style="edgeStyle=orthogonalEdgeStyle;curved=1;rounded=0;orthogonalLoop=1;jettySize=auto;html=1;entryX=0.017;entryY=0.475;entryDx=0;entryDy=0;entryPerimeter=0;startArrow=oval;startFill=1;endArrow=oval;endFill=1;fillColor=#d5e8d4;strokeColor=#82b366;" parent="WIyWlLk6GJQsqaUBKTNV-1" source="7WMX1Rni2dbUCdkuUEu--5" target="7WMX1Rni2dbUCdkuUEu--0" edge="1">
          <mxGeometry relative="1" as="geometry" />
        </mxCell>
        <mxCell id="7WMX1Rni2dbUCdkuUEu--5" value="自然代谢单元" style="aspect=fixed;html=1;points=[];align=center;image;fontSize=12;image=data:image/svg+xml,PHN2ZyB4bWxucz0iaHR0cDovL3d3dy53My5vcmcvMjAwMC9zdmciIHhtbG5zOnhsaW5rPSJodHRwOi8vd3d3LnczLm9yZy8xOTk5L3hsaW5rIiB3aWR0aD0iNTgiIGhlaWdodD0iNjUiIG92ZXJmbG93PSJoaWRkZW4iIHZpZXdCb3g9IjAgMCA1OCA2NSI+PGRlZnM+PGNsaXBQYXRoIGlkPSJjbGlwMCI+PHJlY3QgeD0iNzEzIiB5PSI2MTkiIHdpZHRoPSI1OCIgaGVpZ2h0PSI2NSIvPjwvY2xpcFBhdGg+PC9kZWZzPjxnIGNsaXAtcGF0aD0idXJsKCNjbGlwMCkiIHRyYW5zZm9ybT0idHJhbnNsYXRlKC03MTMgLTYxOSkiPjxwYXRoIGQ9Ik03MzYuMjg3IDY2Ni45OTcgNzQwLjc1NSA2NzUuNjg3Qzc0MS4wMjIgNjc2LjE4OCA3NDAuODE3IDY3Ni44IDc0MC4zMTQgNjc3LjA2NiA3MzkuNDQgNjc3LjUwNSA3MzguODk2IDY3OC4zOTMgNzM4Ljg5NiA2NzkuMzY0IDczOC44OTYgNjgwLjc5MyA3NDAuMDY3IDY4MS45NTggNzQxLjQ5NSA2ODEuOTU4IDc0Mi45MzMgNjgxLjk1OCA3NDQuMTA0IDY4MC43OTMgNzQ0LjEwNCA2NzkuMzY0IDc0NC4xMDQgNjc4LjM5MyA3NDMuNTYgNjc3LjUwNSA3NDIuNjg2IDY3Ny4wNjYgNzQyLjE3MyA2NzYuOCA3NDEuOTc4IDY3Ni4xODggNzQyLjIzNCA2NzUuNjg3TDc0Ni43MDMgNjY3LjAwN0M3NDUuMDU5IDY2Ny41NjkgNzQzLjMwMyA2NjcuODY1IDc0MS40OTUgNjY3Ljg2NSA3MzkuNjc3IDY2Ny44NjUgNzM3LjkyIDY2Ny41NTggNzM2LjI4NyA2NjYuOTk3Wk03MjUuODMgNjU1LjAwOCA3MjAuNDg4IDY2My4yMDhDNzIwLjM0NSA2NjMuNDMzIDcyMC4xMDggNjYzLjU5NiA3MTkuODQxIDY2My42NDcgNzE5LjU3NCA2NjMuNzA4IDcxOS4yOTcgNjYzLjY1NyA3MTkuMDcxIDY2My41MTQgNzE4LjY1IDY2My4yMzkgNzE4LjE1NyA2NjMuMDk2IDcxNy42NTMgNjYzLjA5NiA3MTYuMjI1IDY2My4wOTYgNzE1LjA1NCA2NjQuMjYgNzE1LjA1NCA2NjUuNjc5IDcxNS4wNTQgNjY3LjEwOSA3MTYuMjI1IDY2OC4yNzMgNzE3LjY1MyA2NjguMjczIDcxOS4wOTEgNjY4LjI3MyA3MjAuMjYyIDY2Ny4xMDkgNzIwLjI2MiA2NjUuNjc5IDcyMC4yNjIgNjY1LjYzOCA3MjAuMjYyIDY2NS41OTggNzIwLjI2MiA2NjUuNTQ3IDcyMC4yMzIgNjY0Ljk4NSA3MjAuNjYzIDY2NC41MDUgNzIxLjIyOCA2NjQuNDc0TDczMS4wNDggNjYzLjk4NEM3MjguNDA4IDY2MS42OTcgNzI2LjUxOCA2NTguNTYxIDcyNS44MyA2NTUuMDA4Wk03MzcuNDM5IDY0OS42OTRDNzM3LjgzOSA2NDkuMzI2IDczOC40NDYgNjQ5LjMyNiA3MzguODQ2IDY0OS42OTRMNzQxLjQ5NiA2NTIuMTU3IDc0NC4xNTcgNjQ5LjY5NEM3NDQuNTQ3IDY0OS4zMjYgNzQ1LjE2MyA2NDkuMzI2IDc0NS41NTQgNjQ5LjY5NEw3NDguOTEzIDY1Mi44MTFDNzQ5LjMyNCA2NTMuMTg5IDc0OS4zNDQgNjUzLjgzMyA3NDguOTY0IDY1NC4yNTIgNzQ4LjU3NCA2NTQuNjYxIDc0Ny45MjcgNjU0LjY4MSA3NDcuNTA1IDY1NC4zMDNMNzQ0Ljg1NSA2NTEuODQgNzQyLjIwNSA2NTQuMzAzQzc0MS44MDQgNjU0LjY3MSA3NDEuMTk4IDY1NC42NzEgNzQwLjc5OCA2NTQuMzAzTDczOC4xNDggNjUxLjg0IDczNS40ODcgNjU0LjMwM0M3MzUuMjkyIDY1NC40ODcgNzM1LjAzNSA2NTQuNTc5IDczNC43ODkgNjU0LjU3OSA3MzQuNTExIDY1NC41NzkgNzM0LjI0NCA2NTQuNDY3IDczNC4wMzkgNjU0LjI1MiA3MzMuNjQ4IDY1My44MzMgNzMzLjY2OSA2NTMuMTg5IDczNC4wOSA2NTIuODExWk03MzkuMjQ1IDY0MC40MzZDNzM5LjgxIDY0MC4zMzQgNzQwLjM0NCA2NDAuNjkyIDc0MC40NTcgNjQxLjI0MyA3NDAuNDU3IDY0MS4yNjMgNzQwLjQ1NyA2NDEuMjc0IDc0MC40NTcgNjQxLjI5NCA3NDAuNTQgNjQxLjgzNSA3NDAuMTggNjQyLjMzNSA3MzkuNjM2IDY0Mi40MzggNzM1LjA0NCA2NDMuMzI2IDczMS43MDYgNjQ3LjMzOSA3MzEuNzA2IDY1MS45OTUgNzMxLjcwNiA2NTcuMzY1IDczNi4xMDIgNjYxLjczNSA3NDEuNDk1IDY2MS43MzUgNzQ2Ljg5OCA2NjEuNzM1IDc1MS4yOTQgNjU3LjM2NSA3NTEuMjk0IDY1MS45OTUgNzUxLjI5NCA2NDcuMzM5IDc0Ny45NTYgNjQzLjMyNiA3NDMuMzU0IDY0Mi40MzggNzQyLjgyIDY0Mi4zMzUgNzQyLjQ2IDY0MS44MzUgNzQyLjUzMiA2NDEuMjk0IDc0Mi41NDIgNjQxLjI3NCA3NDIuNTQyIDY0MS4yNjMgNzQyLjU0MiA2NDEuMjQzIDc0Mi42NTYgNjQwLjY5MiA3NDMuMTkgNjQwLjMzNCA3NDMuNzQ0IDY0MC40MzYgNzQ5LjMxMSA2NDEuNTA4IDc1My4zNDggNjQ2LjM2OSA3NTMuMzQ4IDY1MS45OTUgNzUzLjM0OCA2NTguNDg4IDc0OC4wMjggNjYzLjc3NyA3NDEuNDk1IDY2My43NzcgNzM0Ljk2MiA2NjMuNzc3IDcyOS42NTIgNjU4LjQ4OCA3MjkuNjUyIDY1MS45OTUgNzI5LjY1MiA2NDYuMzY5IDczMy42ODggNjQxLjUwOCA3MzkuMjQ1IDY0MC40MzZaTTc0MS40OTUgNjM4LjE3OEM3MzMuODMyIDYzOC4xNzggNzI3LjU5NyA2NDQuMzc3IDcyNy41OTcgNjUxLjk5NSA3MjcuNTk3IDY1OS42MjMgNzMzLjgzMiA2NjUuODIyIDc0MS40OTUgNjY1LjgyMiA3NDUuODA5IDY2NS44MjIgNzQ5LjgxNSA2NjMuODgyIDc1Mi40NjYgNjYwLjQ5MSA3NTIuODA1IDY2MC4wNTIgNzUzLjQzMSA2NTkuOTcxIDc1My44ODMgNjYwLjI5NyA3NTMuODkzIDY2MC4yOTcgNzUzLjkwNCA2NjAuMzA4IDc1My45MTQgNjYwLjMxOCA3NTQuMzU2IDY2MC42NTUgNzU0LjQzOCA2NjEuMjk4IDc1NC4wODkgNjYxLjc0OCA3NTMuNDQxIDY2Mi41NjUgNzUyLjczMyA2NjMuMzEgNzUxLjk2MiA2NjMuOTg0TDc2MS43NjIgNjY0LjQ3NEM3NjIuMzM3IDY2NC41MDUgNzYyLjc2OCA2NjQuOTg1IDc2Mi43MzggNjY1LjU0NyA3NjIuNzM4IDY2NS41OTggNzYyLjczOCA2NjUuNjM4IDc2Mi43MzggNjY1LjY3OSA3NjIuNzM4IDY2Ny4xMDkgNzYzLjkwOSA2NjguMjczIDc2NS4zMzYgNjY4LjI3MyA3NjYuNzc1IDY2OC4yNzMgNzY3Ljk0NiA2NjcuMTA5IDc2Ny45NDYgNjY1LjY3OSA3NjcuOTQ2IDY2NC4yNiA3NjYuNzc1IDY2My4wOTYgNzY1LjMzNiA2NjMuMDk2IDc2NC44MzMgNjYzLjA5NiA3NjQuMzUgNjYzLjIzOSA3NjMuOTI5IDY2My41MTQgNzYzLjY5MyA2NjMuNjU3IDc2My40MTYgNjYzLjcwOCA3NjMuMTQ5IDY2My42NDcgNzYyLjg4MSA2NjMuNTk2IDc2Mi42NTUgNjYzLjQzMyA3NjIuNTAxIDY2My4yMDhMNzU3LjE3IDY1NS4wMThDNzU2Ljk3NSA2NTYuMDE5IDc1Ni42NzcgNjU3LjAwOSA3NTYuMjg3IDY1Ny45NjkgNzU2LjA3MSA2NTguNDkgNzU1LjQ3NSA2NTguNzQ1IDc1NC45NTEgNjU4LjUzMSA3NTQuOTQxIDY1OC41MjEgNzU0LjkzMSA2NTguNTIxIDc1NC45MSA2NTguNTEgNzU0LjQxNyA2NTguMjg2IDc1NC4xNzEgNjU3LjcxNCA3NTQuMzg2IDY1Ny4xOTMgNzU1LjA1NCA2NTUuNTQ5IDc1NS40MDMgNjUzLjc5MiA3NTUuNDAzIDY1MS45OTUgNzU1LjQwMyA2NDQuMzc3IDc0OS4xNjggNjM4LjE3OCA3NDEuNDk1IDYzOC4xNzhaTTc2NS4zMzYgNjM1LjcyN0M3NjMuOTA5IDYzNS43MjcgNzYyLjczOCA2MzYuODkxIDc2Mi43MzggNjM4LjMxIDc2Mi43MzggNjM4LjM2MiA3NjIuNzM4IDYzOC40MDIgNzYyLjczOCA2MzguNDQzIDc2Mi43NjggNjM5LjAwNSA3NjIuMzM3IDYzOS40ODUgNzYxLjc2MiA2MzkuNTE2TDc1MS45NDIgNjQwLjAxNkM3NTQuNTkyIDY0Mi4zMDMgNzU2LjQ3MiA2NDUuNDM5IDc1Ny4xNyA2NDguOTgyTDc2Mi41MDEgNjQwLjc5MkM3NjIuNjU1IDY0MC41NTcgNzYyLjg4MSA2NDAuNDA0IDc2My4xNDkgNjQwLjM0MyA3NjMuNDE2IDY0MC4yOTIgNzYzLjY5MyA2NDAuMzQzIDc2My45MjkgNjQwLjQ4NiA3NjQuMzUgNjQwLjc2MiA3NjQuODMzIDY0MC45MDQgNzY1LjMzNiA2NDAuOTA0IDc2Ni43NzUgNjQwLjkwNCA3NjcuOTQ2IDYzOS43NCA3NjcuOTQ2IDYzOC4zMSA3NjcuOTQ2IDYzNi44OTEgNzY2Ljc3NSA2MzUuNzI3IDc2NS4zMzYgNjM1LjcyN1pNNzE3LjY1MyA2MzUuNzI3QzcxNi4yMjUgNjM1LjcyNyA3MTUuMDU0IDYzNi44OTEgNzE1LjA1NCA2MzguMzEgNzE1LjA1NCA2MzkuNzQgNzE2LjIyNSA2NDAuOTA0IDcxNy42NTMgNjQwLjkwNCA3MTguMTU3IDY0MC45MDQgNzE4LjY1IDY0MC43NjIgNzE5LjA3MSA2NDAuNDg2IDcxOS4yOTcgNjQwLjM0MyA3MTkuNTc0IDY0MC4yOTIgNzE5Ljg0MSA2NDAuMzQzIDcyMC4xMDggNjQwLjQwNCA3MjAuMzQ1IDY0MC41NTcgNzIwLjQ4OCA2NDAuNzkyTDcyNS44MyA2NDguOTgyQzcyNi41MTggNjQ1LjQzOSA3MjguNDA4IDY0Mi4zMDMgNzMxLjA0OCA2NDAuMDE2TDcyMS4yMjggNjM5LjUxNkM3MjAuNjYzIDYzOS40ODUgNzIwLjIzMiA2MzkuMDA1IDcyMC4yNjIgNjM4LjQ0MyA3MjAuMjYyIDYzOC40MDIgNzIwLjI2MiA2MzguMzYyIDcyMC4yNjIgNjM4LjMxIDcyMC4yNjIgNjM2Ljg5MSA3MTkuMDkxIDYzNS43MjcgNzE3LjY1MyA2MzUuNzI3Wk03NDEuNDk1IDYyMi4wNDJDNzQwLjA2NyA2MjIuMDQyIDczOC44OTYgNjIzLjIwNyA3MzguODk2IDYyNC42MjYgNzM4Ljg5NiA2MjUuNjA3IDczOS40NCA2MjYuNDg1IDc0MC4zMTQgNjI2LjkzNCA3NDAuODE3IDYyNy4xODkgNzQxLjAyMiA2MjcuODAyIDc0MC43NTUgNjI4LjMxM0w3MzYuMjg3IDYzNy4wMDNDNzM3LjkyIDYzNi40NDIgNzM5LjY3NyA2MzYuMTM1IDc0MS40OTUgNjM2LjEzNSA3NDMuMzIzIDYzNi4xMzUgNzQ1LjA4IDYzNi40NDIgNzQ2LjcxMyA2MzcuMDAzTDc0Mi4yMzQgNjI4LjMxM0M3NDEuOTc4IDYyNy44MDIgNzQyLjE3MyA2MjcuMTg5IDc0Mi42ODYgNjI2LjkzNCA3NDMuNTYgNjI2LjQ4NSA3NDQuMTA0IDYyNS42MDcgNzQ0LjEwNCA2MjQuNjI2IDc0NC4xMDQgNjIzLjIwNyA3NDIuOTMzIDYyMi4wNDIgNzQxLjQ5NSA2MjIuMDQyWk03NDEuNDk1IDYyMEM3NDQuMDYzIDYyMCA3NDYuMTU4IDYyMi4wNzMgNzQ2LjE1OCA2MjQuNjI2IDc0Ni4xNTggNjI2LjAyNSA3NDUuNTMyIDYyNy4zMjIgNzQ0LjQ4NCA2MjguMTlMNzQ5LjU3OSA2MzguMDg2IDc2MC43NDUgNjM3LjUyNEM3NjEuMTI1IDYzNS4zNDkgNzYzLjA0NiA2MzMuNjg0IDc2NS4zMzYgNjMzLjY4NCA3NjcuOTA0IDYzMy42ODQgNzcwIDYzNS43NTcgNzcwIDYzOC4zMSA3NzAgNjQwLjg2NCA3NjcuOTA0IDY0Mi45NDcgNzY1LjMzNiA2NDIuOTQ3IDc2NC43ODIgNjQyLjk0NyA3NjQuMjQ4IDY0Mi44NDUgNzYzLjczNCA2NDIuNjYxTDc1Ny42NTMgNjUxLjk5NSA3NjMuNzM0IDY2MS4zMzlDNzY0LjI0OCA2NjEuMTQ1IDc2NC43ODIgNjYxLjA1MyA3NjUuMzM2IDY2MS4wNTMgNzY3LjkwNCA2NjEuMDUzIDc3MCA2NjMuMTI2IDc3MCA2NjUuNjc5IDc3MCA2NjguMjMyIDc2Ny45MDQgNjcwLjMxNiA3NjUuMzM2IDY3MC4zMTYgNzYzLjA0NiA2NzAuMzE2IDc2MS4xMjUgNjY4LjY1MSA3NjAuNzQ1IDY2Ni40NzZMNzQ5LjU3OSA2NjUuOTA0IDc0NC40ODQgNjc1LjgxQzc0NS41MzIgNjc2LjY3OCA3NDYuMTU4IDY3Ny45NjUgNzQ2LjE1OCA2NzkuMzY0IDc0Ni4xNTggNjgxLjkxNyA3NDQuMDYzIDY4NCA3NDEuNDk1IDY4NCA3MzguOTI3IDY4NCA3MzYuODQyIDY4MS45MTcgNzM2Ljg0MiA2NzkuMzY0IDczNi44NDIgNjc3Ljk2NSA3MzcuNDY4IDY3Ni42NzggNzM4LjUxNiA2NzUuODFMNzMzLjQyMSA2NjUuOTA0IDcyMi4yNDUgNjY2LjQ3NkM3MjEuODY1IDY2OC42NTEgNzE5Ljk1NCA2NzAuMzE2IDcxNy42NTMgNjcwLjMxNiA3MTUuMDg1IDY3MC4zMTYgNzEzIDY2OC4yMzIgNzEzIDY2NS42NzkgNzEzIDY2My4xMjYgNzE1LjA4NSA2NjEuMDUzIDcxNy42NTMgNjYxLjA1MyA3MTguMjA4IDY2MS4wNTMgNzE4Ljc1MiA2NjEuMTQ1IDcxOS4yNjYgNjYxLjMzOUw3MjUuMzQ3IDY1MS45OTUgNzE5LjI2NiA2NDIuNjYxQzcxOC43NTIgNjQyLjg0NSA3MTguMjA4IDY0Mi45NDcgNzE3LjY1MyA2NDIuOTQ3IDcxNS4wODUgNjQyLjk0NyA3MTMgNjQwLjg2NCA3MTMgNjM4LjMxIDcxMyA2MzUuNzU3IDcxNS4wODUgNjMzLjY4NCA3MTcuNjUzIDYzMy42ODQgNzE5Ljk1NCA2MzMuNjg0IDcyMS44NjUgNjM1LjM0OSA3MjIuMjQ1IDYzNy41MjRMNzMzLjQyMSA2MzguMDg2IDczOC41MTYgNjI4LjE5QzczNy40NjggNjI3LjMyMiA3MzYuODQyIDYyNi4wMjUgNzM2Ljg0MiA2MjQuNjI2IDczNi44NDIgNjIyLjA3MyA3MzguOTI3IDYyMCA3NDEuNDk1IDYyMFoiIGZpbGwtcnVsZT0iZXZlbm9kZCIvPjwvZz48L3N2Zz4=;fillOpacity=100;portConstraintRotation=0;backgroundOutline=0;comic=0;noLabel=0;container=0;sketch=0;" parent="WIyWlLk6GJQsqaUBKTNV-1" vertex="1">
          <mxGeometry x="106.54" y="386.77" width="53.66" height="60" as="geometry" />
        </mxCell>
        <mxCell id="7WMX1Rni2dbUCdkuUEu--13" style="edgeStyle=orthogonalEdgeStyle;curved=1;rounded=0;orthogonalLoop=1;jettySize=auto;html=1;startArrow=oval;startFill=1;endArrow=oval;endFill=1;exitX=0.475;exitY=1.017;exitDx=0;exitDy=0;exitPerimeter=0;fillColor=#d5e8d4;strokeColor=#82b366;" parent="WIyWlLk6GJQsqaUBKTNV-1" source="7WMX1Rni2dbUCdkuUEu--6" target="7WMX1Rni2dbUCdkuUEu--0" edge="1">
          <mxGeometry relative="1" as="geometry">
            <mxPoint x="477.54" y="585.5" as="targetPoint" />
            <Array as="points">
              <mxPoint x="265" y="641" />
              <mxPoint x="533" y="641" />
            </Array>
          </mxGeometry>
        </mxCell>
        <mxCell id="7WMX1Rni2dbUCdkuUEu--6" value="LUC响应单元" style="aspect=fixed;html=1;points=[];align=center;image;fontSize=12;image=data:image/svg+xml,PHN2ZyB4bWxucz0iaHR0cDovL3d3dy53My5vcmcvMjAwMC9zdmciIHhtbG5zOnhsaW5rPSJodHRwOi8vd3d3LnczLm9yZy8xOTk5L3hsaW5rIiB3aWR0aD0iNjUiIGhlaWdodD0iNjYiIG92ZXJmbG93PSJoaWRkZW4iIHZpZXdCb3g9IjAgMCA2NSA2NiI+PGRlZnM+PGNsaXBQYXRoIGlkPSJjbGlwMCI+PHJlY3QgeD0iNjkiIHk9IjYiIHdpZHRoPSI2NSIgaGVpZ2h0PSI2NiIvPjwvY2xpcFBhdGg+PC9kZWZzPjxnIGNsaXAtcGF0aD0idXJsKCNjbGlwMCkiIHRyYW5zZm9ybT0idHJhbnNsYXRlKC02OSAtNikiPjxwYXRoIGQ9Ik0xMzMgMzguOTk1M0MxMzMgMzQuNDk1NSAxMzIuMDUzIDMwLjIxMTQgMTMwLjM1NiAyNi4zMjA5IDEzMC4zIDI2LjE4OTcgMTMwLjI0NCAyNi4wNTg0IDEzMC4xODggMjUuOTI3MiAxMzAuMTY5IDI1Ljg4MDMgMTMwLjE1IDI1LjgzMzUgMTMwLjEzMSAyNS43OTYgMTI3LjIwNyAxOS4zNjUgMTIyLjI3NiAxNC4xNzE1IDExNi4yMzggMTAuODkwNCAxMTYuMjI5IDEwLjg4MTEgMTE2LjIyIDEwLjg3MTcgMTE2LjIwMSAxMC44NzE3IDExNi4wMDQgMTAuNzU5MiAxMTUuODA3IDEwLjY1NjEgMTE1LjYxIDEwLjU1MyAxMTUuNTczIDEwLjUzNDIgMTE1LjU0NSAxMC41MTU1IDExNS41MDcgMTAuNDk2NyAxMTUuMzIgMTAuNDAzIDExNS4xMzIgMTAuMzA5MiAxMTQuOTQ1IDEwLjIxNTUgMTE0Ljc3NiAxMC4xNDA1IDExNC42MDcgMTAuMDU2MSAxMTQuNDM4IDkuOTgxMSAxMTQuMzgyIDkuOTUyOTggMTE0LjMyNiA5LjkyNDg2IDExNC4yNzkgOS45MDYxMSAxMTQuMTAxIDkuODIxNzQgMTEzLjkzMiA5Ljc0Njc0IDExMy43NjMgOS42NzE3NCAxMTMuNzM1IDkuNjYyMzcgMTEzLjcwNyA5LjY1MyAxMTMuNjc5IDkuNjM0MjUgMTExLjM0NSA4LjYyMTggMTA4Ljg2MSA3Ljg3MTgzIDEwNi4yNzMgNy40NDA2IDEwNi4yNzMgNy40NDA2IDEwNi4yNjQgNy40NDA2IDEwNi4yNjQgNy40NDA2IDEwNi4wNDggNy40MDMxMSAxMDUuODQyIDcuMzY1NjEgMTA1LjYyNiA3LjMzNzQ4IDEwNS42MTcgNy4zMzc0OCAxMDUuNjE3IDcuMzM3NDggMTA1LjYxNyA3LjMzNzQ4IDEwNS4wNDUgNy4yNTMxMSAxMDQuNDY0IDcuMTg3NDkgMTAzLjg4MyA3LjEzMTI0IDEwMy43ODkgNy4xMjE4NyAxMDMuNjg2IDcuMTEyNDkgMTAzLjU5MiA3LjEwMzEyIDEwMy40NjEgNy4wOTM3NSAxMDMuMzM5IDcuMDg0MzcgMTAzLjIwOCA3LjA3NSAxMDMuMDg2IDcuMDY1NjIgMTAyLjk1NSA3LjA2NTYyIDEwMi44MjMgNy4wNTYyNSAxMDIuNzExIDcuMDQ2ODcgMTAyLjU5OCA3LjAzNzUgMTAyLjQ4NiA3LjAzNzUgMTAyLjMzNiA3LjAyODEyIDEwMi4xNzcgNy4wMTg3NSAxMDIuMDE3IDcuMDE4NzUgMTAxLjkyMyA3LjAxODc1IDEwMS44MzkgNy4wMDkzNyAxMDEuNzQ1IDcuMDA5MzcgMTAxLjUwMiA3IDEwMS4yNDggNyAxMDAuOTk1IDcgOTcuNTA4IDcgOTQuMTYxMyA3LjU0MzcyIDkwLjkzNjQgOC42MzExNyA4Mi45MDI0IDExLjMxMjMgNzYuMjQ2NSAxNy4xMTUxIDcyLjQ0OTggMjQuNTg2NiA3Mi4zNTYxIDI0LjY1MjMgNzIuMjcxNyAyNC43MjczIDcyLjE5NjcgMjQuODExNiA3Mi4wNjU1IDI0Ljk5OTEgNzEuOTk5OSAyNS4yNDI5IDcyLjAxODYgMjUuNDg2NiA3MC4wODc0IDI5LjU5MjYgNjkgMzQuMTc2OCA2OSAzOC45OTUzIDY5IDUyLjUxMzQgNzcuNDkzMyA2NC4xMzc4IDg5LjM5OSA2OC44MDY0IDg5LjQ5MjggNjguODgxMyA4OS41ODY1IDY4LjkzNzYgODkuNjg5NiA2OC45NjU3IDkwLjUwNTIgNjkuMjU2MyA5MS4zMjA4IDY5LjUwOTQgOTIuMTU1MSA2OS43NDM4IDk0LjczMzEgNzAuNDkzOCA5Ny40NTE3IDcwLjkyNSAxMDAuMjU1IDcwLjk5MDYgMTAwLjUwOCA3MC45OTA2IDEwMC43NTIgNzEgMTAwLjk5NSA3MSAxMDEuMjU4IDcxIDEwMS41MTEgNzAuOTkwNiAxMDEuNzczIDcwLjk5MDYgMTAxLjgwMiA3MC45OTA2IDEwMS44MyA3MC45ODEyIDEwMS44NDggNzAuOTgxMiAxMDQuMjM5IDcwLjkyNSAxMDYuNjIgNzAuNjA2MyAxMDkuMDAxIDcwLjAzNDQgMTA5LjA4NiA3MC4wMDYzIDEwOS4xNyA2OS45Njg4IDEwOS4yNDUgNjkuOTEyNiAxMjIuODg1IDY2LjI0NzEgMTMzIDUzLjc1MDggMTMzIDM4Ljk5NTNaTTExMC43MDcgMzQuODQyNEMxMTAuMzg5IDM0LjcyOTkgMTEwLjA2IDM0LjYyNjggMTA5LjYzOSAzNC42MjY4IDEwOS4wMDEgMzQuNjI2OCAxMDguMTQ4IDM0Ljk0NTUgMTA2Ljc2MSAzNS4zNjc0IDEwNi40NDIgMzUuNDc5OSAxMDYuMjI2IDM1LjU4MyAxMDYuMDExIDM1LjY5NTUgMTA1LjkwOCAzNS4wNDg2IDEwNS40NzYgMzQuMTk1NSAxMDQuMzA1IDMzLjc3MzcgMTAzLjY2NyAzMy41NTgxIDEwMy4yMzYgMzMuNjYxMiAxMDIuOTE3IDMzLjc3MzcgMTAyLjE3NyAzNC4wOTI0IDEwMS45NjEgMzQuODQyNCAxMDEuNzQ1IDM1LjQ3OTlMMTAxLjc0NSAzNS42OTU1QzEwMS4zMTQgMzUuMzY3NCAxMDEuMTA4IDM0Ljg0MjQgMTAwLjg5MiAzNC4zMDggMTAwLjM1OCAzMi44MDgxIDk5LjUwNDggMzEuMzE3NiA5Ni4zMDggMzIuMDY3NSA5NS4zNDI1IDMyLjI4MzEgOTQuNzA1IDMyLjM4NjMgOTQuMjgzMSAzMi40ODk0IDk1LjEzNjIgMzEuMTAxOSA5Ni42MjY4IDI4LjY1NTIgOTUuNDU1IDI1Ljg4MDNMOTUuNDU1IDI1Ljc2NzhDOTYuMDkyNCAyNS45ODM0IDk3LjA0ODYgMjYuNDE0NyA5Ny42OTU1IDI2LjczMzQgMTAwLjAzOSAyNy44MDIxIDEwMS41MyAyOC40Mzk2IDEwMi41OTggMjguMDA4MyAxMDMuODgzIDI3LjU4NjUgMTA0LjczNiAyNi41MTc4IDEwNS4wNTQgMjUuMTMwNCAxMDUuMzczIDIzLjYzOTggMTA1LjA1NCAyMi4xNDkzIDEwNC4wODkgMjEuMDgwNiAxMDMuNTU1IDIwLjQ0MzEgMTAzLjAzIDIwLjQ0MzEgMTAyLjU5OCAyMC40NDMxTDEwMi4zODMgMjAuNDQzMUMxMDIuODE0IDIwLjAxMTkgMTAzLjIzNiAxOS42OTMxIDEwMy42NjcgMTkuNDc3NSAxMDQuNDA4IDE5LjE1ODggMTA1LjE1OCAxOS4yNjE5IDEwNS43OTUgMTkuOTA4NyAxMDYuNjQ4IDIwLjc2MTggMTA3LjcxNyAyMC45NjgxIDEwOC43ODYgMjAuNjQ5MyAxMTAuOTE0IDIwLjAxMTkgMTEyLjQxMyAxNy4xMzM5IDExMi43MzIgMTQuNzkwMiAxMTIuOTM4IDEzLjQyMTYgMTEyLjc0MiAxMi4yNjg1IDExMi40MzIgMTEuNDI0OCAxMTUuMTc5IDEyLjU2ODUgMTE3LjcyOSAxNC4xMjQ3IDExOS45OTggMTUuOTk5NiAxMTkuNjg4IDE3LjA3NzYgMTE5LjAzMiAxOS4yMDU3IDExNy45NjMgMjIuMDE4IDExNy42NDUgMjEuOTYxOCAxMTcuMzI2IDIxLjkzMzYgMTE2Ljk5OCAyMS45MzM2IDExNC4wMDcgMjEuOTMzNiAxMTEuNjY0IDI0LjI3NzMgMTExLjY2NCAyNy4yNjc4IDExMS42NjQgMjkuMTIzOSAxMTIuNTczIDMwLjcyNyAxMTMuOTcgMzEuNjgzMiAxMTMuMjY3IDMzLjI4NjIgMTEyLjU0NSAzNC44NTE4IDExMS43OTUgMzYuMzg5MiAxMTEuNjI2IDM1Ljc3OTggMTExLjM3MyAzNS4yMDggMTEwLjcwNyAzNC44NDI0Wk0xMDAuMzU4IDI1LjQ0OTFDMTAxLjUzIDI1LjM0NiAxMDIuMTY3IDI0LjE3NDIgMTAyLjU5OCAyMy4zMjExIDEwMi43MDEgMjMuMTA1NSAxMDIuODE0IDIzLjAwMjMgMTAyLjkxNyAyMi43ODY3IDEwMy4yMzYgMjMuMzIxMSAxMDMuMjM2IDIzLjk1ODUgMTAzLjEzMyAyNC41OTYgMTAzLjAzIDI0LjkxNDcgMTAyLjgxNCAyNS43Njc4IDEwMi4wNjQgMjUuOTgzNCAxMDEuODQ4IDI1Ljk4MzQgMTAxLjEwOCAyNS43Njc4IDEwMC4zNTggMjUuNDQ5MVpNOTUuNjYxMiAxMS41ODQyQzk1Ljg3NjggMTAuNzMxMSA5NS43NzM3IDEwLjE5NjcgOTUuNjYxMiA5LjY2MjM3IDk5LjgyMzUgOS4wMjQ5IDEwNC4yMDEgOS4xMzc0IDEwOC4yNTEgMTAuMTk2NyAxMDcuNzE3IDEwLjQxMjMgMTA2Ljk2NyAxMC43MzExIDEwNi4xMTQgMTEuMDQ5OCAxMDQuODM5IDExLjU4NDIgMTAzLjIzNiAxMi4yMzEgMTAyLjU5OCAxMi4yMzEgOTkuODIzNSAxMi4yMzEgOTcuNzk4NiAxMy44MjQ3IDk1Ljk4OTMgMTUuMjEyMSA5My45NTUgMTYuODE1MSA5Mi4wNDI2IDE4LjIwMjYgODkuMjY3OCAxNy40NTI2IDg5LjU4NjUgMTYuODE1MSA5MC40Mzk2IDE2LjI4MDggOTEuNjExNCAxNS42NDMzIDkzLjMxNzYgMTQuNzkwMiA5NS4yMzkzIDEzLjcyMTUgOTUuNjYxMiAxMS41ODQyWk0xMjAuMTk0IDI3LjI2NzhDMTIwLjE5NCAyOS4wNzcgMTE4LjgwNyAzMC40NjQ1IDExNi45OTggMzAuNDY0NSAxMTUuMTg4IDMwLjQ2NDUgMTEzLjgwMSAyOS4wNzcgMTEzLjgwMSAyNy4yNjc4IDExMy44MDEgMjUuNDQ5MSAxMTUuMTg4IDI0LjA2MTcgMTE2Ljk5OCAyNC4wNjE3IDExOC44MDcgMjQuMDYxNyAxMjAuMTk0IDI1LjQ0OTEgMTIwLjE5NCAyNy4yNjc4Wk0xMTYuOTk4IDMyLjYwMTlDMTE5Ljk4OCAzMi42MDE5IDEyMi4zMzIgMzAuMjQ4OSAxMjIuMzMyIDI3LjI2NzggMTIyLjMzMiAyNS4zODM1IDEyMS4zOTQgMjMuNzYxNyAxMTkuOTYgMjIuODE0OSAxMjAuNzk0IDIwLjU5MzEgMTIxLjM4NSAxOC43OTMyIDEyMS43NjkgMTcuNTgzOSAxMjUuNTg1IDIxLjI5NjIgMTI4LjQyNSAyNi4wMDIyIDEyOS44NDEgMzEuMjg5NCAxMjkuNzk0IDMxLjg4IDEyOS43OTQgMzIuNjM5NCAxMjkuNzk0IDMzLjQ1NSAxMjkuNzk0IDM0LjUxNDMgMTI5Ljc5NCAzNi4yMjk4IDEyOS41ODggMzcuMTg2TDEyOS4zNzIgMzYuOTcwNEMxMjguNDA2IDM1LjY5NTUgMTI2LjkxNiAzNC4wOTI0IDEyNS4zMTMgMzQuNTE0MyAxMjMuNTA0IDM0Ljk0NTUgMTIzLjE4NSAzNy41MDQ4IDEyMi44NjYgMzkuNzQ1MyAxMjIuNzU0IDQwLjI3OTYgMTIyLjY1MSA0MS4wMjAyIDEyMi41NDcgNDEuMjM1OCAxMjEuNjk0IDQyLjUyMDEgMTIwLjcyOSA0My4xNTc2IDExOS4zNDEgNDMuMTU3NiAxMTYuOTQxIDQzLjE1NzYgMTE0LjI1MSA0MS4xNzk2IDExMi43ODggMzkuMTczNCAxMTMuODc2IDM3LjAxNzMgMTE0LjkxNyAzNC43ODYxIDExNS45MSAzMi40ODk0IDExNi4yNjYgMzIuNTY0NCAxMTYuNjIzIDMyLjYwMTkgMTE2Ljk5OCAzMi42MDE5Wk0xMTEuNjczIDQxLjMyMDJDMTEzLjUyOSA0My40NTc2IDExNi4zNzkgNDUuMzk4MSAxMTkuMjM4IDQ1LjM5ODEgMTIxLjI2MyA0NS4zOTgxIDEyMy4wODIgNDQuMzI5NCAxMjQuMzU3IDQyLjQwNzYgMTI0LjU3MiA0MS45ODU4IDEyNC42NzUgNDEuMzQ4MyAxMjQuODkxIDQwLjA2NCAxMjQuOTk0IDM5LjEwNzggMTI1LjMxMyAzNi44NjczIDEyNS43NDQgMzYuNTQ4NiAxMjUuNzQ0IDM2LjU0ODYgMTI2LjI3OCAzNi41NDg2IDEyNy41NTMgMzguMjU0NyAxMjcuODgyIDM4Ljc4OTEgMTI4LjgzOCA0MC4wNjQgMTMwLjExMyAzOS42NDIyIDEzMC40MjIgMzkuNTI5NyAxMzAuNjY2IDM5LjM2MDkgMTMwLjg2MyAzOS4xMTcyIDEzMC44NDQgNDQuMDY2OSAxMjkuNTk3IDQ4Ljc0NDggMTI3LjQyMiA1Mi44NjAzIDEyMC43MDEgNTIuODEzNCAxMTQuMTAxIDUwLjc1MSAxMDcuOTg5IDQ3LjcwNDMgMTA5LjI2NCA0NS42NjA2IDExMC40OTIgNDMuNTMyNiAxMTEuNjczIDQxLjMyMDJaTTg3LjEzOTcgMTIuNTY4NUM4Ni45NDI5IDEzLjE0OTcgODYuODExNiAxMy41OTk3IDg2LjgxMTYgMTMuOTM3MiA4Ni44MTE2IDE0LjM1OSA4Ny4xMzA0IDE0Ljc5MDIgODcuNjY0NyAxNC44OTM0IDg4LjE5OTEgMTQuOTk2NSA4OC40MTQ3IDE0LjY3NzcgODkuMDUyMSAxNC4xNDM0IDkxLjkzMDEgMTEuNDgxIDkzLjIxNDQgMTAuNzMxMSA5My43NDg4IDEwLjUxNTUgOTMuNzQ4OCAxMC42Mjc5IDkzLjYzNjMgMTAuODQzNiA5My42MzYzIDExLjA0OTggOTMuNDMwMSAxMi4yMzEgOTIuMDQyNiAxMi44Njg1IDkwLjY1NTIgMTMuNjA5MSA4OC45NDkgMTQuNTc0NiA4Ni43MDg1IDE1Ljc0NjQgODYuOTE0NyAxOC4yMDI2IDg2LjkxNDcgMTguNjI0NCA4Ny4xMzA0IDE5LjA1NTcgODcuNTYxNiAxOS4xNTg4IDkxLjkzMDEgMjAuODY0OSA5NC43MDUgMTguNzM2OSA5Ny4xNjExIDE2LjgxNTEgOTguOTcwNCAxNS40Mjc3IDEwMC40NjEgMTQuMjU1OSAxMDIuNTk4IDE0LjI1NTkgMTAzLjc3IDE0LjI1NTkgMTA1LjI2MSAxMy42MDkxIDEwNi45NjcgMTIuODY4NSAxMDcuODI5IDEyLjQzNzIgMTA5LjIwNyAxMS45MDI5IDEwOS43NDIgMTEuNzk5OCAxMTAuNTk1IDEyLjU0OTcgMTEwLjU5NSAxMy43MjE1IDExMC40OTIgMTQuNDYyMSAxMTAuMjc2IDE2LjQ5NjQgMTA5LjAwMSAxOC4zMDU3IDEwOC4wMzYgMTguNjI0NCAxMDcuODI5IDE4LjczNjkgMTA3LjYxNCAxOC43MzY5IDEwNy4yOTUgMTguNDA4OCAxMDYuMDExIDE3LjIzNyAxMDQuNDA4IDE2LjgxNTEgMTAyLjgxNCAxNy41NTU3IDEwMC40NjEgMTguNjI0NCA5OC44NjczIDIxLjUwMjQgOTguOTcwNCAyNC40OTI5IDk4Ljk3MDQgMjQuNzA4NSA5OS4wODI5IDI0LjgxMTYgOTkuMTg2IDI1LjAyNzIgOTguOTcwNCAyNC45MTQ3IDk4Ljg2NzMgMjQuOTE0NyA5OC42NTE3IDI0LjgxMTYgOTYuMzA4IDIzLjc0MjkgOTQuNjAxOSAyMy4wMDIzIDkzLjYzNjMgMjMuOTU4NSA5Mi43ODMyIDI0LjkxNDcgOTMuMzE3NiAyNi4xOTkxIDkzLjUzMzIgMjYuNzMzNCA5NC4yODMxIDI4LjU0MjcgOTMuMzE3NiAzMC4xNDU3IDkyLjU2NzYgMzEuNDMwMSA5MS45MzAxIDMyLjM4NjMgOTEuMzk1OCAzMy4yMzkzIDkyLjA0MjYgMzQuMDkyNCA5Mi42ODAxIDM1LjA0ODYgOTQuMDY3NSAzNC45NDU1IDk2Ljk0NTUgMzQuMTk1NSA5OC42NTE3IDMzLjg3NjggOTguNjUxNyAzNC4wOTI0IDk5LjA4MjkgMzUuMTYxMSA5OS4yODkxIDM1LjkwMTcgOTkuNjA3OSAzNi43NTQ4IDEwMC41NzMgMzcuNTA0OCAxMDAuNzg5IDM3LjcyMDQgMTAxLjY0MiAzOC4zNTc4IDEwMi41OTggMzguMDM5MSAxMDMuNTU1IDM3LjcyMDQgMTAzLjc3IDM2Ljg2NzMgMTAzLjk4NiAzNi4yMjk4IDEwNC4wODkgMzYuMTE3MyAxMDQuMDg5IDM2LjExNzMgMTA0LjA4OSAzNi4wMTQyIDEwNC4yMDEgMzYuMDE0MiAxMDQuMjAxIDM2LjIyOTggMTA0LjIwMSAzNi40MzYxIDEwNC4zMDUgMzYuNzU0OCAxMDQuMzA1IDM3LjUwNDggMTA0Ljk0MiAzNy44MjM1IDEwNS42OTIgMzguMjU0NyAxMDYuNDQyIDM3LjkzNiAxMDcuOTMyIDM3LjI4OTEgMTA5LjAwMSAzNi43NTQ4IDEwOS41MzYgMzYuNzU0OCAxMDkuNjM5IDM2Ljc1NDggMTA5Ljc0MiAzNi45NzA0IDEwOS44NTQgMzcuMjg5MSAxMDkuODU0IDM3LjYwNzkgMTA5LjkyOSAzOC4xMzI5IDExMC4wNTEgMzguNzE0MSAxMTAuMzA0IDM5LjMwNDcgMTA4Ljk0NSA0MS44ODI3IDEwNy41MiA0NC4zNDgyIDEwNi4wNDggNDYuNzAxMiA5OS40Mjk4IDQzLjEyOTUgOTMuNDQ4OCAzOC40ODkxIDg4LjU4MzQgMzQuMTc2OCA4OS4wMTQ2IDMzLjM5ODcgODkuMjY3OCAzMi40OTg4IDg5LjI2NzggMzEuNTMzMiA4OS4yNjc4IDI4LjU0MjcgODYuOTE0NyAyNi4xOTkxIDgzLjkzMzYgMjYuMTk5MSA4Mi45NDkzIDI2LjE5OTEgODIuMDMwNiAyNi40NTIyIDgxLjI1MjUgMjYuOTAyMiA3OC45NTU4IDI0LjUwMjMgNzcuMzQzMyAyMi42MDg2IDc2LjY0MDMgMjEuNzY0OSA3OS4zNjgyIDE3Ljk0MDEgODIuOTY4MSAxNC43NzE1IDg3LjEzOTcgMTIuNTY4NVpNMTA0LjMwNSA1My43MTMzIDEwNi4wMTEgNTYuOTE5NEMxMDYuMjI2IDU3LjIzODIgMTA2LjU0NSA1Ny40NTM4IDEwNi45NjcgNTcuNDUzOEwxMTMuMjY3IDU3LjQ1MzggMTEyLjMwMSA2MC41NDc0IDEwOC44ODkgNjMuMzEyOUMxMDguNjgyIDYzLjQyNTQgMTA4LjQ2NyA2My43NDQxIDEwOC40NjcgNjMuOTU5N0wxMDcuNzI2IDY4LjA5MzlDMTA1LjU2MSA2OC42MDAxIDEwMy4zMTEgNjguODYyNiAxMDAuOTk1IDY4Ljg2MjYgOTcuNjk1NSA2OC44NjI2IDk0LjUxNzUgNjguMzE4OSA5MS41NDU4IDY3LjMyNTIgOTIuODAyIDY2LjI4NDYgOTQuMDU4MiA2NS4xNTk3IDk1LjI0ODcgNjMuOTY5MSA5NS45OTg3IDY0LjM3MjIgOTYuODcwNSA2NC41OTcyIDk3Ljc5ODYgNjQuNTk3MiAxMDAuNzg5IDY0LjU5NzIgMTAzLjEzMyA2Mi4yNTM1IDEwMy4xMzMgNTkuMjYzMSAxMDMuMTMzIDU4LjA3MjUgMTAyLjc1OCA1Ni45ODUxIDEwMi4xMiA1Ni4xMDM5IDEwMi43NzYgNTUuMjYwMSAxMDMuNDIzIDU0LjQwNzEgMTA0LjA2MSA1My41MzUyTDEwNC4zMDUgNTMuNzEzM1pNMTAwLjk5NSA1OS4yNjMxQzEwMC45OTUgNjEuMDgxNyA5OS42MDc5IDYyLjQ1OTggOTcuNzk4NiA2Mi40NTk4IDk1Ljk4OTMgNjIuNDU5OCA5NC42MDE5IDYxLjA4MTcgOTQuNjAxOSA1OS4yNjMxIDk0LjYwMTkgNTcuNDUzOCA5NS45ODkzIDU2LjA2NjQgOTcuNzk4NiA1Ni4wNjY0IDk5LjYwNzkgNTYuMDY2NCAxMDAuOTk1IDU3LjQ1MzggMTAwLjk5NSA1OS4yNjMxWk0xMDAuNTI3IDU0LjY2MDJDOTkuNzI5OCA1NC4xOTE0IDk4LjgwMTcgNTMuOTI5IDk3Ljc5ODYgNTMuOTI5IDk0LjgwODEgNTMuOTI5IDkyLjQ2NDUgNTYuMjgyIDkyLjQ2NDUgNTkuMjYzMSA5Mi40NjQ1IDYwLjUyODYgOTIuODg2MyA2MS42ODE3IDkzLjYwODIgNjIuNTkxIDkyLjUwMiA2My42NTk3IDkxLjM4NjQgNjQuNjUzNCA5MC4yNTIxIDY1LjYwOTZMODguNTE3OCA2Mi4xNDExQzg4LjMwMjIgNjEuODIyMyA4Ny45ODM0IDYxLjUwMzYgODcuNjY0NyA2MS41MDM2TDgzLjgyMTIgNjAuOTY5MiA3OC4zMTgzIDU4LjM3MjVDNzguMDQ2NCA1OC4wNTM4IDc3Ljc4MzkgNTcuNzM1IDc3LjUyMTUgNTcuNDA2OUw3Ni41NzQ2IDUzLjA3NTkgNzkuMzQ5NSA0OS4zNDQ4IDgxLjQwMjUgNDguMzEzNkM4MS4zOTMxIDQ4LjMzMjQgODEuMzgzOCA0OC4zNjA1IDgxLjM3NDQgNDguMzg4Nkw4MS41OSA0OC4yNzYxQzgxLjY5MzEgNDguMjc2MSA4MS42OTMxIDQ4LjE3MyA4MS43OTYyIDQ4LjE3M0w4Mi4wMTE5IDQ4LjA2MDVDODIuMDMwNiA0OC4wNTExIDgyLjA0OTQgNDguMDQxNyA4Mi4wNjgxIDQ4LjAyM0w4OC40MTQ3IDQ2LjU2OTkgOTEuMDc3IDQ4LjQ5MTdDOTEuMTg5NSA0OC40OTE3IDkxLjI5MjcgNDguNTk0OCA5MS4zOTU4IDQ4LjU5NDhMOTUuMzQyNSA0OS44NzkyIDk1LjY2MTIgNDkuODc5MiA5OS4wODI5IDQ5Ljc2NjcgMTAyLjMyNiA1Mi4yMjI4QzEwMS43MzYgNTMuMDU3MSAxMDEuMTI3IDUzLjg2MzMgMTAwLjUyNyA1NC42NjAyWk04OC4xODAzIDY1Ljk0NzFDODYuNTAyMyA2NS4xNTAzIDg0LjkwODYgNjQuMTk0MSA4My40MTggNjMuMDk3MyA4My40NDYyIDYzLjEwNjYgODMuNDc0MyA2My4xMDY2IDgzLjUwMjQgNjMuMTA2Nkw4Ny4wMjcyIDYzLjUyODUgODguMTgwMyA2NS45NDcxWk0xMDAuMDM5IDQ3Ljk1NzRDOTkuOTM2IDQ3Ljg1NDMgOTkuNjA3OSA0Ny43NDE4IDk5LjQwMTYgNDcuNzQxOEw5NS43NzM3IDQ3Ljg1NDMgOTIuMTQ1NyA0Ni42ODI0IDg5LjE1NTMgNDQuNjQ4MkM4OC45NDkgNDQuNDQxOSA4OC42MzAzIDQ0LjMyOTQgODguMzAyMiA0NC40NDE5TDg2LjkxNDcgNDQuNzUxM0M4Ni43NTU0IDQ0LjU5MTkgODYuNTM5OCA0NC40ODg4IDg2LjI3NzMgNDQuNDQxOUw4NS4yMDg2IDQ0LjMyOTRDODUuMDAyMyA0NC4zMjk0IDg0Ljc4NjcgNDQuMzI5NCA4NC41NzExIDQ0LjQ0MTlMODEuMjYxOSA0Ni4wMzU2IDgxLjI2MTkgNDYuMDM1NkM4MS4yNDMxIDQ2LjAzNTYgODEuMjI0NCA0Ni4wNDUgODEuMjA1NyA0Ni4wNTQzTDgwLjg0IDQ2LjE0ODFDODAuNjYxOSA0Ni4yMTM3IDgwLjUyMTMgNDYuMzI2MiA4MC40MTgyIDQ2LjQ0ODFMNzguMTc3NyA0Ny41MzU1Qzc3Ljk2MjEgNDcuNjM4NiA3Ny44NDk2IDQ3Ljc0MTggNzcuNzQ2NCA0Ny44NTQzTDc0LjU0OTcgNTIuMjIyOEM3NC40NzQ3IDUyLjI5NzggNzQuNDE4NSA1Mi4zODIyIDc0LjM3MTYgNTIuNDc1OSA3My4wNTkyIDQ5LjkwNzMgNzIuMTEyNCA0Ny4xMzI0IDcxLjU4NzQgNDQuMjA3NiA3MS45MzQyIDQzLjg4ODggNzIuMjgxMSA0My42MjYzIDcyLjYyNzkgNDMuMzczMiA3My40ODEgNDIuNzM1OCA3NC4zMzQxIDQyLjA4ODkgNzUuMTg3MiA0MC40OTUyIDc2LjA0MDMgMzkuMTA3OCA3NS45MzcyIDM4LjM1NzggNzUuNjA5MSAzNy4yODkxIDc1LjUwNTkgMzYuNjUxNyA3NS4yOTAzIDM1LjkwMTcgNzUuNDAyOCAzNC41MTQzIDc1LjUwNTkgMzIuNzA1IDc1LjUwNTkgMzIuMTcwNiA3NS40MDI4IDMxLjYzNjMgNzUuMjkwMyAzMS4yMTQ0IDc1LjI5MDMgMzAuNzgzMiA3NS40MDI4IDI4Ljk3MzkgNzUuNDc3OCAyNy4wMjQgNzUuMTg3MiAyNi4wNjc4IDc0LjQ4NDEgMjUuMjk5MSA3NC43NzQ3IDI0LjczNjYgNzUuMDg0MSAyNC4xODM1IDc1LjQxMjIgMjMuNjM5OCA3Ni4yNDY1IDI0LjY1MjMgNzcuNjcxNCAyNi4zMjA5IDc5LjYyMTQgMjguMzY0NiA3OC45NzQ1IDI5LjI0NTggNzguNTk5NSAzMC4zMzMyIDc4LjU5OTUgMzEuNTMzMiA3OC41OTk1IDM0LjUxNDMgODAuOTQzMiAzNi44NjczIDgzLjkzMzYgMzYuODY3MyA4NS4xNzExIDM2Ljg2NzMgODYuMjk2IDM2LjQ2NDIgODcuMTk2IDM1Ljc3OTggOTIuMDk4OSA0MC4xMzkgOTguMTY0MiA0NC44MjYzIDEwNC45MDQgNDguNDgyMyAxMDQuNDM2IDQ5LjE5NDggMTAzLjk2NyA0OS44ODg1IDEwMy40OTggNTAuNTcyOUwxMDAuMDM5IDQ3Ljk1NzRaTTgzLjkzMzYgMzQuNzI5OUM4Mi4xMTUgMzQuNzI5OSA4MC43MzY5IDMzLjM0MjUgODAuNzM2OSAzMS41MzMyIDgwLjczNjkgMjkuNzE0NSA4Mi4xMTUgMjguMzM2NSA4My45MzM2IDI4LjMzNjUgODUuNzQyOSAyOC4zMzY1IDg3LjEzMDQgMjkuNzE0NSA4Ny4xMzA0IDMxLjUzMzIgODcuMTMwNCAzMy4zNDI1IDg1Ljc0MjkgMzQuNzI5OSA4My45MzM2IDM0LjcyOTlaTTczLjI3NDggMjcuOTE0NkM3My4yOTM1IDI4LjE3NzEgNzMuMjkzNSAyOC40ODY1IDczLjI2NTQgMjguODYxNCA3My4xNjIzIDMwLjg5NTcgNzMuMTYyMyAzMS40MzAxIDczLjI2NTQgMzEuOTU1IDczLjM2ODUgMzIuMzg2MyA3My4zNjg1IDMyLjgwODEgNzMuMjY1NCAzNC40MTEyIDczLjE2MjMgMzYuMTE3MyA3My4zNjg1IDM3LjA4MjkgNzMuNTg0MiAzNy44MjM1IDczLjc5OTggMzguNTczNSA3My43OTk4IDM4Ljc4OTEgNzMuMzY4NSAzOS41Mjk3IDcyLjczMTEgNDAuNzAxNSA3Mi4wOTM2IDQxLjIzNTggNzEuMzQzNiA0MS43NzAyIDcxLjMyNDkgNDEuNzg4OSA3MS4yOTY4IDQxLjgwNzcgNzEuMjY4NiA0MS44MjY0IDcxLjE4NDMgNDAuODk4MyA3MS4xMzc0IDM5Ljk1MTUgNzEuMTM3NCAzOC45OTUzIDcxLjEzNzQgMzUuMDg2MSA3MS44OTY3IDMxLjM0NTcgNzMuMjc0OCAyNy45MTQ2Wk0xMTAuMDMyIDY3LjQ1NjQgMTEwLjQ5MiA2NC43MDAzIDExMy45MDQgNjEuOTM0OEMxMTQuMDA3IDYxLjcxOTIgMTE0LjEyIDYxLjYwNjcgMTE0LjIyMyA2MS40MDA1TDExNS42MSA1Ni43MDM4QzExNS43MTMgNTYuMzg1MSAxMTUuNzEzIDU2LjA2NjQgMTE1LjUwNyA1NS43NDc2IDExNS4yOTEgNTUuNTMyIDExNC45NzMgNTUuMzE2NCAxMTQuNjU0IDU1LjMxNjRMMTA3LjYxNCA1NS4zMTY0IDEwNi4wMTEgNTIuNTQxNSAxMDUuNjkyIDUyLjIyMjggMTA1LjIzMyA1MS44ODUzQzEwNS43NzYgNTEuMTA3MiAxMDYuMzExIDUwLjMxMDQgMTA2Ljg0NSA0OS41MDQyIDExMi45MiA1Mi41NTA5IDExOS40ODIgNTQuNjg4MyAxMjYuMjAzIDU0Ljk2OTUgMTIyLjQ3MiA2MC44MTkyIDExNi43NjMgNjUuMzA5NiAxMTAuMDMyIDY3LjQ1NjRaIiBmaWxsLXJ1bGU9ImV2ZW5vZGQiLz48L2c+PC9zdmc+;fillOpacity=100;portConstraintRotation=0;backgroundOutline=0;comic=0;noLabel=0;container=0;sketch=0;imageBackground=#ffffff;" parent="WIyWlLk6GJQsqaUBKTNV-1" vertex="1">
          <mxGeometry x="237" y="530.5" width="58.93" height="60" as="geometry" />
        </mxCell>
        <mxCell id="7WMX1Rni2dbUCdkuUEu--21" value="&lt;span style=&quot;color: rgb(0 , 0 , 0) ; font-family: &amp;#34;helvetica&amp;#34; ; font-size: 12px ; font-style: normal ; font-weight: 400 ; letter-spacing: normal ; text-indent: 0px ; text-transform: none ; word-spacing: 0px ; background-color: rgb(255 , 255 , 255) ; display: inline ; float: none&quot;&gt;多层耦合网络分析&lt;/span&gt;" style="text;whiteSpace=wrap;html=1;align=center;" parent="WIyWlLk6GJQsqaUBKTNV-1" vertex="1">
          <mxGeometry x="340.99" y="308" width="120" height="30" as="geometry" />
        </mxCell>
      </root>
    </mxGraphModel>
  </diagram>
</mxfile>
